<?xml version="1.0" encoding="utf-8"?>
<!-- Generator: Adobe Illustrator 18.0.0, SVG Export Plug-In . SVG Version: 6.00 Build 0)  -->
<!DOCTYPE svg PUBLIC "-//W3C//DTD SVG 1.1//EN" "http://www.w3.org/Graphics/SVG/1.1/DTD/svg11.dtd">
<svg version="1.1" xmlns="http://www.w3.org/2000/svg" xmlns:xlink="http://www.w3.org/1999/xlink" x="0px" y="0px"
	 viewBox="0 0 166.5 587.4" enable-background="new 0 0 166.5 587.4" xml:space="preserve">
<g id="hombre">
</g>
<g id="mujer">
	<path id="cuerpo_2_" fill="#261975" stroke="#261975" stroke-width="0.4883" stroke-miterlimit="10" d="M158.8,305.2
		c-0.6-5.7-6.5-24.9-6.8-27.3c-0.3-2.4,1.5-26.4,2.3-45.3c0.8-18.9-3.9-34.5-3.9-34.5c0.3-4.5-3.1-41.5-3.6-44.1
		c-0.5-2.6,1.3-38.7-2.6-50.4c-3.9-11.7-20-9.6-25.8-10.1c-5.7-0.5-7.6-1.8-14.9-4.3c-7.3-2.4-3.5-19.9-3.5-19.9s5.4-5.6,5.6-13.5
		c0,0,1.2,0.5,2.1,0c0.9-0.5,5.2-9.1,4.8-15.4c-0.4-6.3-5.1,0-5.1,0s5.4-35.9-23-35.4c-28.3-0.5-23,35.4-23,35.4s-4.6-6.3-5.1,0
		c-0.4,6.3,3.8,15,4.8,15.4c0.9,0.5,2.1,0,2.1,0c0.2,7.9,5.6,13.5,5.6,13.5l0.2,1.1c0,0,3.2,15.1-4.4,19c-6.9,3.5-8.5,4.4-14.2,4.9
		c-5.7,0.5-21-4-25.8,10.1c-4,11.7-2.1,47.8-2.6,50.4c-0.5,2.6-3.9,39.6-3.6,44.1c0,0-4.7,15.6-3.9,34.5c0.8,18.9,2.6,42.8,2.3,45.3
		c-0.3,2.4-6.2,21.6-6.8,27.3c-0.3,3.1,3.3,25.9,3.6,26.5c0,0,0.2,0.3,0.7,0.3c0.5,0,0.2,4.5,0.9,4.7s2.6,0.7,2.7-4.2
		c0,0,1.1,0.8,1.6-1.1c0.4-1.8-0.1-5.8-0.1-5.8s2.3,0,2.3-1.7c0-1.7,0.2-14.7,0.2-15.4c0,0,2.6-3.7,2.9-4.9c0.5-1.7,0.4-6.2,0.3-6.7
		c-0.1-0.5,2.5-4.6,2.5-6.8c0,0,0.9-3.4,0.2-8.7c-0.6-5.2,0.6-17,1.8-25c1.2-8.1,9.7-44.4,9.5-50.4c-0.3-6,0.1-21.5,0.8-26.4
		c0.7-4.9,3.5-23.1,3.5-23.1s1.5,2.5,2,3.7c0,0,9,30.2,7.1,41.4c-1.2,6.7-11.7,26.3-12.7,30.1c0,0-15.8,34.9-8.2,98.4
		c8.9,45,13.1,45.8,16.7,66.5c0,0,2.9,22.4,2.4,35.8c-0.5,13.4-0.1,35.7,3.6,50.8c3.7,15.1,12.5,49.6,12.5,54.2
		c0,4.6,2.2,9.3,1.2,13.4c-1,4.2-7,17.3-11.3,19.5c-2.8,1.7-3.9,5.2-3.5,6c0.4,0.8,2.4,1,2.7,0.9c0.2-0.1,2.3,1.3,4.6,1.4
		c2.3,0.1,6.5-0.7,6.5-0.7s1.1,0.7,4.2,0.7c3.1-0.1,7-2.3,7.2-3.1c0.2-0.8,3.6-3.2,3.6-3.2s2.5,0.4,2.8-3.7
		c0.2-4.1-0.8-10.9-0.8-12.9c0-2,1.4-5.5,1.5-5.9c0.1-0.4,0.9-4.6,0-6.2c-0.9-1.6-3.9-18.2-4-20.6c-0.1-2.4-0.1-13.1,0.4-17.8
		c0.4-3.8,4-22.4,3.3-39.2C84.4,456,82,443,82,437.1c0,0-0.2-10.3,0.8-19.7c1-9.4-0.6-32.9-1.2-36.8c0,0,0.7-48.1,0.7-53.6
		c0-5.5-1.8-34.3-1.8-34.3s1.1,0.4,3.5,0.4c2.4,0,3.2-0.4,3.2-0.4S87,320.1,87,325.6c0,5.5,1.5,54.1,1.5,54.1
		c-0.7,3.9-0.5,27.4,0.4,36.8c1,9.4,0.8,19.7,0.8,19.7c0,5.9-3.3,18.4-3.8,29.5c-0.7,16.8,3.8,35.9,4.2,39.7
		c0.4,4.6,0.5,15.3,0.4,17.8c-0.1,2.4-3.2,19-4,20.6c-0.9,1.6-0.1,5.8,0,6.2c0.1,0.4,1.5,3.9,1.5,5.9c0,2-1.1,8.8-0.8,12.9
		c0.2,4.1,2.8,3.7,2.8,3.7s3.3,2.4,3.6,3.2c0.2,0.8,4.2,3,7.2,3.1c3.1,0.1,4.2-0.7,4.2-0.7s4.2,0.7,6.5,0.7c2.3-0.1,4.3-1.5,4.6-1.4
		c0.2,0.1,2.3-0.1,2.7-0.9c0.4-0.8-0.7-4.3-3.5-6c-4.3-2.2-10.3-15.3-11.3-19.5c-1-4.2,1.2-8.8,1.2-13.4c0-4.6,8.8-39.1,12.5-54.2
		c3.7-15.1,3.2-37.4,2.7-50.8c-0.5-13.4,2.6-35.8,2.6-35.8c1.6-21.8,8.7-19.2,14.5-66.5c7.6-63.5-9.2-97.7-9.2-97.7
		c-1-3.8-12.7-23.8-12.8-30.6c-0.1-8.1,8.1-41.6,8.1-41.6c0.4-1.2,2-3.7,2-3.7s2.8,18.2,3.5,23.1c0.7,4.9,1,20.4,0.8,26.4
		c-0.3,6,8.3,42.3,9.5,50.4c1.2,8.1,2.4,19.8,1.8,25c-0.6,5.2,0.2,8.7,0.2,8.7c0,2.2,2.6,6.3,2.5,6.8c-0.1,0.5-0.1,5,0.3,6.7
		c0.3,1.2,2.9,4.9,2.9,4.9c-0.1,0.7,0.2,13.8,0.2,15.4c0,1.7,2.3,1.7,2.3,1.7s-0.5,3.9-0.1,5.8c0.4,1.8,1.6,1.1,1.6,1.1
		c0,4.8,2,4.4,2.7,4.2c0.7-0.2,0.4-4.7,0.9-4.7c0.5,0,0.7-0.3,0.7-0.3C155.5,331.1,159.1,308.4,158.8,305.2z"/>
	<path id="pulmones_2_" fill="#21B3D6" stroke="#3FA818" stroke-width="1.602200e-02" stroke-miterlimit="10" d="M81.9,105.4
		c0,0,1.1,23.9,0.2,26.6c-0.8,2.5-3.4,3.6-3.4,3.6s-0.1-5.7-1.2-15.6c-1.4-10.7-5.7-7.6-10.4-6.1c-15.5,12.7-11.6,32.3-11.6,32.3
		c-1.6,1.3-1.8,6.1-1.8,6.1c-2.7,3.2-2.2,22.2-0.8,26.8c7.9,8.8,18.3,4.2,23.8,1.1c5.5-3.1,3.6-19.8,3.5-21
		c-0.1-1.2,0.5-10.1,0.5-10.9c0-0.8,0.2-3.5,0.3-4.1c0.5-3.6,2.8-4.3,2.8-4.3s1.3-0.9,3.5,0.2c2.2,1.2,2.3,3.2,2.8,4.5
		c0.5,1.3,2.2,8.9,1.9,11.2c-0.2,2.3,0.4,5.9,0.4,14.1c0,8.3-3.7,12.2,8.9,13.4c12.6,1.2,16.3-5.1,16.3-5.1
		c1.7-17.9-1-26.2-1.6-27.5c-0.6-1.3-0.5-2.5-1-3.8c-1.4-12.1-4.2-20-6.9-24.1c-2.7-4.1-13.8-14.6-17.1-7.2
		c-3.3,7.3-1.1,17.4-1,17.8c0.1,0.4,0.3,2.5,0.3,2.5s-2.7-0.3-3.7-4.1c0,0-1.6-22.4-0.5-26.5c0,0,2.5-3.7,2.4-4.7h-0.9v-2.6
		c0,0,1.1-0.3,1.2-1.8c0-0.4,0-0.8,0-0.8s0.7-1.1-0.6-1.5c-0.7,0-1.2,0.5-1.2,1.7c0,0.3-0.3,1-0.9,1c0,0,0.7-1.4-2.2-1.5
		c-2.4-0.1-2,1.5-2,1.5s-0.8,0-0.8-0.9c0,0,0.4-1.8-0.9-1.8c-1.5,0-0.9,1.3-0.9,1.3s-0.3,2.8,1.2,2.9v2.6l-1,0
		C79.2,100.7,80.7,105.1,81.9,105.4z"/>
	<g id="intestinos_2_">
		<path fill="#144872" d="M56.9,259.5c2.5-2.2,2.6-3.1,3.2-6.3c0.7-3.2-1.6-5.6-3.2-6.6c1.9-1.5-0.5-4.8-0.9-5.4
			c0-1.1-0.8-1.7-1.6-2.7c1.4-1.4,0.3-5.6-0.1-6.6c2.2-1,1.1-5.3,0.9-6c0.9-0.3,1.6-3.2,1.6-3.7c4.2,3.7,8,1.5,8.8,1.1
			c2.6,4.1,7,2.3,7.8,1.9c3.7,2.5,7.4,0.5,7.8,0c4.3,2.1,6.2,0.2,7.1-0.7c4.7,1.3,7.5-0.7,8-1.2c3.6,1.5,5.3-0.7,6-1.5
			c5.8,0,7.8-5.7,7.8-5.7s0,2.1-0.1,2.5c-1.2,1.2-0.8,3.3-0.7,3.6c-1.7,2.4-0.9,4.4-0.9,5.3c-1.1,1.3-1,4.2-0.6,5.3
			c-1.2,4.6,0.6,6,1,6.6c-1.5,4.3,0.7,6.1,1.3,6.6c-0.8,4.4,0.8,6,1.5,6.8c-2.2,3.3-0.7,6.9-0.5,7.5c-1.4,0-1.8,2.7-1.9,3.3
			c-2.3,0.4-3.1,2.1-3.5,2.9c-3.8-2.9-5.9-0.2-5.9-0.2c-1.3-2.1-4-4.1-6.5-3.8c-4.2-4.7-9.5-7.8-16.1-4.1c0,0-1.8,0.6-2.6,0
			c0-0.1,1,2.9-3.6,3.5c-1.1-0.2-2.1-0.5-3.6-0.6c-1.5,0-4.7-0.1-6.7-1.2C58.5,259,56.9,259.5,56.9,259.5z"/>
		<g>
			<g>
				<path fill="#21B3D6" d="M62.3,246.3c0.7-0.7,1.5-1.2,2.3-1.8c0.4-0.3,0.8-0.5,1.2-0.8c0.4-0.2,0.8-0.5,1.3-0.7
					c0.4-0.2,0.9-0.4,1.3-0.6l0.7-0.2c0.2-0.1,0.5-0.1,0.7-0.1c0.2-0.1,0.5-0.1,0.7-0.1c0.2,0,0.5,0,0.7,0c0.2,0,0.5,0,0.7,0.1
					l0.7,0.2l0,0l0,0l0.5,0.3c0.2,0.1,0.3,0.2,0.4,0.4l0.4,0.4l0.4,0.5c0.1,0.2,0.2,0.4,0.3,0.6c0,0.2,0.1,0.4,0.1,0.6
					c0,0.4,0,0.8,0,1.1l0,0l-0.6-0.1c0.2-0.4,0.5-0.8,0.9-1.1c0.2-0.1,0.4-0.3,0.6-0.4c0.2-0.1,0.4-0.2,0.7-0.3
					c0.2,0,0.5-0.1,0.7-0.1c0.2,0,0.5,0,0.7,0.1c0.2,0.1,0.4,0.1,0.6,0.2l0.6,0.3c0.2,0.1,0.4,0.3,0.5,0.4c0.2,0.1,0.4,0.3,0.5,0.4
					c0.3,0.3,0.6,0.6,0.9,0.9c0.3,0.3,0.6,0.7,0.8,1l0.7,1.1l-0.1,0.1l-0.8-1c-0.2-0.4-0.6-0.6-0.8-1c-0.3-0.3-0.6-0.6-0.9-0.9
					c-0.2-0.1-0.3-0.3-0.5-0.4c-0.2-0.1-0.3-0.2-0.5-0.3l-0.6-0.3c-0.2-0.1-0.4-0.1-0.6-0.2c-0.2-0.1-0.4,0-0.6,0
					c-0.2,0-0.4,0.1-0.6,0.1c-0.2,0.1-0.4,0.1-0.5,0.2c-0.2,0.1-0.3,0.2-0.5,0.4c-0.3,0.3-0.5,0.6-0.7,0.9l-0.6,1.2l0-1.3l0,0
					c0-0.4,0.1-0.8,0-1.1c0-0.2,0-0.3-0.1-0.5c-0.1-0.1-0.1-0.3-0.2-0.4l-0.3-0.4l-0.4-0.4c-0.1-0.1-0.3-0.2-0.4-0.3l-0.4-0.3l0,0
					l-0.6-0.2c-0.2-0.1-0.4-0.1-0.7-0.1c-0.2-0.1-0.5,0-0.7,0c-0.2,0-0.5,0-0.7,0c-0.2,0-0.5,0-0.7,0.1l-0.7,0.2
					c-0.4,0.2-0.9,0.3-1.3,0.5c-0.4,0.2-0.9,0.4-1.3,0.6c-0.4,0.2-0.8,0.5-1.2,0.7C63.9,245.2,63.1,245.8,62.3,246.3L62.3,246.3z"/>
			</g>
			<g>
				<path fill="#21B3D6" d="M64,250c0.8-0.8,1.6-1.5,2.4-2.1c0.4-0.3,0.9-0.6,1.4-0.9c0.5-0.2,1-0.4,1.6-0.4c0.3,0,0.6,0.1,0.8,0.3
					c0.2,0.2,0.4,0.5,0.5,0.7c0.2,0.5,0.2,1.1,0.4,1.5c0.2,0.5,0.5,0.9,0.9,1.2c0.4,0.3,0.9,0.5,1.4,0.6h0l-0.1,0
					c0.6,0,1.3-0.2,1.9-0.6c0.3-0.2,0.6-0.3,1-0.5c0.4-0.1,0.8-0.1,1.2,0.1c0.2,0.1,0.3,0.2,0.5,0.4l0.4,0.4l0.7,0.8
					c0.5,0.5,0.9,1,1.5,1.4c0.5,0.4,1.1,0.8,1.7,0.9c0.6,0.1,1.3,0.1,1.8-0.3c1-0.8,1.7-2.1,1.9-3.4c0.2-1.3,0-2.7-0.6-3.9
					c-0.6-1.2-1.4-2.3-2.4-3.2c-1-0.8-2.4-1.2-3.7-1.3c-1.4-0.1-2.7,0.2-4,0.8l0,0c1.2-0.7,2.6-1.1,4-1.1c0.7,0,1.4,0.1,2.1,0.3
					c0.7,0.2,1.4,0.5,1.9,1c1,1,2,2.1,2.6,3.4c0.6,1.3,0.8,2.8,0.6,4.2c-0.1,0.7-0.4,1.4-0.7,2c-0.3,0.6-0.8,1.2-1.4,1.7
					c-0.2,0.1-0.3,0.2-0.5,0.3l-0.3,0.1c-0.1,0-0.1,0-0.3,0.1c-0.4,0.1-0.8,0.1-1.1,0c-0.7-0.2-1.4-0.6-1.9-1
					c-0.6-0.4-1.1-1-1.5-1.5l-0.7-0.8l-0.4-0.4c-0.1-0.1-0.2-0.2-0.3-0.3c-0.5-0.3-1.1,0-1.7,0.3c-0.6,0.3-1.3,0.6-2.1,0.6l0,0l0,0
					l0,0c-0.5-0.2-1.1-0.4-1.5-0.8c-0.5-0.4-0.8-0.9-1-1.4c-0.2-0.5-0.2-1.1-0.4-1.6c-0.1-0.2-0.2-0.5-0.4-0.6
					c-0.2-0.2-0.4-0.2-0.7-0.3c-0.5,0-1,0.1-1.5,0.3c-0.5,0.2-0.9,0.5-1.4,0.8C65.6,248.5,64.8,249.2,64,250L64,250z"/>
			</g>
			<g>
				<path fill="#21B3D6" d="M64.9,244.5c-0.6-0.2-1.1-0.6-1.5-1c-0.4-0.4-0.8-0.9-1-1.5c-0.1-0.1-0.1-0.3-0.1-0.4
					c0-0.2-0.1-0.3-0.1-0.5l0-0.5l0-0.5c0-0.3,0.1-0.6,0.2-0.9c0.1-0.3,0.2-0.6,0.3-0.9l0,0c0-0.2,0.1-0.5,0-0.6
					c0-0.2-0.2-0.3-0.4-0.5c-0.2-0.2-0.4-0.3-0.6-0.5c-0.2-0.2-0.3-0.5-0.4-0.7c-0.3-0.9-0.4-2-0.2-2.9c0.2-1,0.8-1.9,1.5-2.5
					c0.2-0.1,0.4-0.3,0.6-0.4l0.7-0.3l0.7-0.2c0.2-0.1,0.5-0.1,0.7-0.2c1-0.2,2,0.1,2.9,0.6c0.9,0.5,1.6,1.2,2.4,1.5
					c0.4,0.1,0.9,0.1,1.4,0.1c0.5,0,0.9-0.1,1.4-0.1c0.9-0.1,1.9-0.2,2.9-0.2c1,0.1,1.9,0.4,2.8,0.9c0.9,0.5,1.7,1,2.5,1.5
					c0.8,0.5,1.6,1.1,2.3,1.7l1.1,0.9c0.4,0.3,0.7,0.6,1.1,0.8c0.8,0.4,1.8,0.3,2.7,0.2c1-0.1,2,0,2.9,0.3c0.9,0.3,1.8,0.8,2.6,1.2
					l2.6,1.3l-0.1,0.2l-2.6-1.2c-0.9-0.4-1.7-0.9-2.6-1.1c-0.9-0.3-1.8-0.3-2.8-0.3c-0.9,0-2,0.2-2.9-0.2c-0.5-0.2-0.8-0.6-1.2-0.8
					l-1.1-0.9c-0.8-0.6-1.5-1.1-2.3-1.6c-0.8-0.5-1.6-1-2.4-1.5c-0.8-0.4-1.7-0.8-2.6-0.8c-0.9-0.1-1.9,0-2.8,0.2
					c-0.5,0-1,0.1-1.5,0.1c-0.3,0-0.5,0-0.7,0c-0.2,0-0.5,0-0.8-0.1c-1-0.4-1.7-1.1-2.5-1.5c-0.8-0.5-1.7-0.7-2.6-0.6
					c-0.2,0-0.4,0.1-0.7,0.1l-0.7,0.2l-0.6,0.3l-0.6,0.4c-0.7,0.6-1.2,1.4-1.4,2.3c-0.2,0.9-0.2,1.9,0.2,2.7
					c0.1,0.2,0.1,0.4,0.3,0.6c0.1,0.1,0.3,0.3,0.5,0.5c0.2,0.2,0.4,0.3,0.5,0.6c0.1,0.3,0,0.5,0,0.8l0,0l0,0
					c-0.1,0.3-0.2,0.5-0.3,0.8c-0.1,0.3-0.2,0.6-0.2,0.9l0,0.4l0,0.4c0,0.1,0,0.3,0.1,0.4c0,0.1,0.1,0.3,0.1,0.4
					c0.4,1.1,1.3,2,2.4,2.4L64.9,244.5z"/>
			</g>
			<g>
				<path fill="#21B3D6" d="M73,235.8c0,0,0.4,0.3,0.9,0.9c0.2,0.3,0.5,0.7,0.6,1.2c0.2,0.5,0.2,1,0.2,1.5c0,0.3,0,0.5-0.1,0.8
					c-0.1,0.2-0.1,0.5-0.2,0.7c-0.1,0.5-0.3,0.9-0.5,1.2c-0.2,0.3-0.4,0.6-0.5,0.8c-0.1,0.2-0.2,0.3-0.2,0.3l-0.5-0.4
					c0,0,0.1-0.1,0.2-0.3c0.1-0.2,0.3-0.4,0.5-0.7c0.2-0.3,0.4-0.7,0.5-1.1c0.1-0.2,0.1-0.4,0.2-0.7c0.1-0.2,0.1-0.5,0.1-0.7
					c0-0.5,0-0.9-0.1-1.4c-0.1-0.4-0.3-0.8-0.5-1.1c-0.4-0.6-0.8-0.9-0.8-0.9L73,235.8z"/>
			</g>
			<g>
				<path fill="#21B3D6" d="M70.9,240.3c-0.5-0.4-1-0.6-1.6-0.7c-0.3,0-0.6,0-0.8,0.1c-0.3,0.1-0.5,0.3-0.7,0.4l0,0l-0.6,0.5
					l0.3-0.7c0.3-0.8,0.5-1.6,0.5-2.4c0-0.4,0-0.8,0-1.2c-0.1-0.4-0.2-0.8-0.5-1l0,0l-0.6-0.8l0.8,0.4c0.4,0.2,1,0.3,1.5,0.4
					c0.5,0.1,1.1,0,1.6,0l0.8-0.1c0.3,0,0.6,0,0.9,0.2c0.3,0.2,0.5,0.4,0.6,0.5c0.1,0.1,0.2,0.1,0.3,0.1c0.1,0,0.2,0,0.3,0
					c0.6,0,1,0,1.6,0c0.5,0,1.1,0,1.7,0.1c0.3,0,0.5,0.1,0.8,0.2l0.4,0.1l0.4,0.2c0.2,0.1,0.5,0.3,0.7,0.5c0.2,0.2,0.4,0.4,0.6,0.6
					c0.7,0.8,1.4,1.6,2.3,2.3c0.4,0.3,0.9,0.6,1.4,0.7c0.2,0.1,0.5,0.1,0.8,0.2c0.3,0.1,0.5,0.1,0.8,0.1c0.5,0,1,0,1.6-0.1
					c0.5,0,1.1-0.1,1.6-0.1c0.3,0,0.6,0.1,0.9,0.2c0.2,0.1,0.5,0.2,0.7,0.4c0.5,0.3,0.9,0.7,1.3,1.1l0,0c-0.5-0.3-0.9-0.6-1.4-0.8
					c-0.2-0.1-0.5-0.2-0.7-0.3c-0.2-0.1-0.5-0.1-0.7-0.2c-0.5,0-1,0.1-1.6,0.1c-0.5,0.1-1.1,0.1-1.6,0c-0.3,0-0.5,0-0.8-0.1
					c-0.3,0-0.5-0.1-0.8-0.2c-0.5-0.2-1-0.5-1.5-0.8c-0.9-0.7-1.6-1.5-2.3-2.3c-0.4-0.4-0.7-0.8-1.2-1l-0.3-0.2l-0.4-0.1
					c-0.2-0.1-0.5-0.1-0.8-0.1c-0.5-0.1-1,0-1.6,0c-0.5,0-1.1,0.1-1.6,0c-0.2,0-0.3-0.1-0.5-0.2c-0.1-0.1-0.3-0.2-0.4-0.3
					c-0.2-0.2-0.3-0.5-0.5-0.6c-0.4-0.2-1-0.1-1.5-0.1l-0.8,0.1l-0.4,0l-0.4,0c-0.6,0-1.1-0.1-1.7-0.3l0.3-0.4l0,0
					c0.4,0.4,0.5,0.8,0.6,1.3c0.1,0.4,0.1,0.9,0,1.3c-0.1,0.9-0.3,1.7-0.6,2.6l-0.3-0.2l0,0c0.3-0.2,0.5-0.4,0.9-0.4
					c0.3-0.1,0.6-0.1,1,0C70,239.5,70.5,239.8,70.9,240.3L70.9,240.3z"/>
			</g>
			<g>
				<path fill="#21B3D6" d="M87.3,227.5c0.8,1.4,2,2.5,3.4,3.1c0.4,0.2,0.7,0.3,1.1,0.4c0.4,0.1,0.8,0.2,1.2,0.2
					c0.4,0.1,0.8,0,1.2,0.1c0.2,0,0.4,0,0.6,0l0.6-0.1l1.1-0.1l-0.9,0.6l0,0c-0.8,0.5-1.5,1.1-2,1.8c-0.5,0.7-0.8,1.7-0.4,2.5
					c0.3,0.9,1.1,1.4,2,1.6c0.9,0.2,1.8,0.2,2.8,0.1c0.5,0,1,0,1.5,0.1c0.2,0.1,0.5,0.2,0.7,0.5c0,0.1,0.1,0.1,0.1,0.2l0,0.2
					c0,0.1,0,0.3,0,0.4c-0.2,0.6-0.7,0.8-1.2,1c-0.5,0.2-0.9,0.3-1.4,0.3c-0.9,0.2-1.9,0.3-2.8,0.5c-0.9,0.2-1.8,0.4-2.6,0.8
					c-0.2,0.1-0.3,0.2-0.5,0.4c-0.2,0.2-0.3,0.3-0.4,0.5c-0.3,0.3-0.5,0.7-0.6,1.1c-0.3,0.8-0.3,1.7-0.1,2.6
					c0.2,0.9,0.7,1.7,1.3,2.3c0.7,0.6,1.5,0.9,2.4,1c1.8,0.3,3.7-0.1,5.2-1.3c0.7-0.6,1.3-1.3,1.5-2.2c0.2-0.9,0.5-1.8,0.5-2.7h0.2
					c0,1-0.3,1.9-0.4,2.8c-0.2,1-0.8,1.8-1.6,2.4c-1.5,1.2-3.6,1.7-5.5,1.5c-1-0.1-1.9-0.5-2.7-1.1c-0.8-0.6-1.3-1.6-1.5-2.5
					c-0.2-1-0.2-2,0.1-3c0.2-0.5,0.4-0.9,0.7-1.3c0.2-0.2,0.3-0.4,0.5-0.6c0.1-0.2,0.4-0.4,0.6-0.5c0.9-0.5,1.9-0.7,2.8-0.9
					c0.9-0.1,1.9-0.2,2.8-0.4c0.5-0.1,0.9-0.1,1.4-0.3c0.4-0.1,0.9-0.3,1-0.7c0-0.1,0-0.2,0-0.3l0-0.2l0-0.1
					c-0.1-0.2-0.3-0.3-0.5-0.3c-0.4-0.1-0.9-0.1-1.4-0.1c-0.9,0-1.9,0.1-2.9-0.2c-0.5-0.1-0.9-0.3-1.3-0.6c-0.4-0.3-0.7-0.7-0.9-1.2
					c-0.4-0.9-0.1-2.1,0.4-2.8c0.5-0.8,1.2-1.5,2.1-2.1l0,0l0.2,0.5l-0.6,0c-0.2,0-0.4,0-0.6,0c-0.4,0-0.8,0-1.2-0.1
					c-0.4-0.1-0.8-0.2-1.2-0.3c-0.4-0.1-0.8-0.3-1.1-0.5c-1.5-0.7-2.7-1.9-3.5-3.4L87.3,227.5z"/>
			</g>
			<g>
				<path fill="#21B3D6" d="M82.9,235.1c0,0,0-0.6,0.3-1.4c0.1-0.2,0.2-0.4,0.3-0.6c0.1-0.2,0.2-0.5,0.4-0.7
					c0.2-0.2,0.3-0.4,0.5-0.6c0.2-0.2,0.4-0.4,0.6-0.6c0.2-0.2,0.5-0.3,0.7-0.5c0.3-0.1,0.5-0.2,0.8-0.3c0.5-0.2,1-0.3,1.4-0.4
					c0.4-0.1,0.8-0.1,1-0.1c0.2,0,0.4,0,0.4,0l0,0.3c0,0-0.1,0-0.4,0.1c-0.2,0-0.6,0.1-1,0.2c-0.2,0.1-0.4,0.1-0.6,0.2
					c-0.2,0.1-0.4,0.2-0.7,0.2c-0.2,0.1-0.5,0.2-0.7,0.3c-0.2,0.1-0.4,0.3-0.7,0.4c-0.9,0.6-1.5,1.5-1.8,2.3
					c-0.3,0.7-0.4,1.3-0.4,1.3L82.9,235.1z"/>
			</g>
			<g>
				<path fill="#21B3D6" d="M96.4,226.8c0.6,0.1,1.2,0.1,1.7,0.1c0.3,0,0.6,0,0.9,0l0.9-0.1c0.7,0,1.3,0.1,1.8,0.5
					c0.5,0.3,1,0.9,1.2,1.6c0.1,0.7-0.1,1.3-0.3,1.9c-0.3,0.6-0.6,1.1-1,1.5c-0.2,0.2-0.4,0.4-0.6,0.6c-0.2,0.2-0.5,0.4-0.8,0.6
					c-0.5,0.3-1.1,0.5-1.7,0.5h0l0-0.1c0.5-0.2,0.9-0.3,1.4-0.3c0.5,0,1,0,1.5,0.2c1,0.3,1.8,0.9,2.5,1.6c0.3,0.4,0.6,0.8,0.8,1.2
					c0.2,0.4,0.4,0.9,0.5,1.4c0.2,1,0,2.1-0.6,3c-0.6,0.9-1.3,1.5-2.1,2.1c-0.8,0.6-1.7,1-2.5,1.4c-0.5,0.2-0.9,0.4-1.3,0.5
					c-0.5,0.1-0.9,0.3-1.4,0.4c-0.9,0.2-1.9,0.3-2.9,0.1l0-0.1c1,0,1.9-0.2,2.8-0.5c0.5-0.1,0.9-0.3,1.3-0.4
					c0.4-0.2,0.9-0.4,1.3-0.6c0.8-0.4,1.7-0.9,2.4-1.4c0.7-0.5,1.4-1.2,1.9-1.9c0.5-0.8,0.7-1.6,0.5-2.5c-0.1-0.4-0.2-0.8-0.4-1.3
					c-0.2-0.4-0.5-0.8-0.8-1.1c-0.3-0.4-0.6-0.7-1-0.9c-0.4-0.3-0.8-0.5-1.2-0.6c-0.9-0.3-1.8-0.4-2.7-0.3l0-0.1h0
					c0.6-0.1,1.1-0.4,1.6-0.7c0.2-0.2,0.4-0.3,0.6-0.5c0.2-0.2,0.4-0.4,0.6-0.7c0.3-0.5,0.7-0.9,0.9-1.4c0.2-0.5,0.3-1,0.2-1.5
					c-0.1-0.5-0.4-0.9-0.9-1.2c-0.4-0.3-1-0.4-1.5-0.5l-0.9,0c-0.3,0-0.6,0-0.9,0c-0.6-0.1-1.2-0.2-1.8-0.3L96.4,226.8z"/>
			</g>
			<g>
				<path fill="#21B3D6" d="M62,231.5c-0.1-0.4-0.4-0.7-0.8-0.8c-0.4-0.2-0.8-0.2-1.2-0.2l0-0.3c0.5,0,1-0.1,1.5-0.1
					c0.2,0,0.5,0,0.8,0c0.1,0,0.3,0,0.4,0.1c0.1,0,0.1,0,0.2,0.1c0.1,0,0.2,0.1,0.2,0.1l-0.4,0.5c-0.1-0.1-0.3-0.2-0.5-0.2
					c-0.2-0.1-0.5-0.1-0.7-0.1c-0.5-0.1-1-0.1-1.4-0.1l0-0.3c0.4,0,0.9,0.1,1.3,0.3c0.4,0.2,0.7,0.5,0.8,1L62,231.5z"/>
			</g>
			<g>
				<path fill="#21B3D6" d="M59.6,237.2c0,0,0.9,0.1,1.7,0.4c0.2,0.1,0.4,0.2,0.6,0.3c0.2,0.1,0.3,0.3,0.5,0.4
					c0.2,0.3,0.3,0.5,0.3,0.5l-0.4,0.2c0,0-0.1-0.2-0.3-0.4c-0.1-0.1-0.2-0.2-0.4-0.3c-0.2-0.1-0.3-0.2-0.5-0.3
					c-0.8-0.4-1.6-0.5-1.6-0.5L59.6,237.2z"/>
			</g>
			<path fill="none" stroke="#21B3D6" stroke-width="0.3157" stroke-miterlimit="10" d="M60.8,227c0,0,0.9,0.1,1.2-0.3"/>
			<g>
				<path fill="#21B3D6" d="M65,227.7c0,0,0,0.1-0.1,0.3c0,0.2,0,0.4,0,0.7c0,0.2,0.1,0.5,0.2,0.7c0.1,0.2,0.1,0.3,0.1,0.3l-0.3,0.1
					c0,0,0-0.1-0.1-0.3c-0.1-0.2-0.1-0.5-0.1-0.7c0-0.3,0-0.5,0.1-0.7C64.9,227.8,65,227.7,65,227.7z"/>
			</g>
			<g>
				<path fill="#21B3D6" d="M69.2,231c0,0,0.1-0.1,0.3-0.2c0.2-0.1,0.5-0.3,0.8-0.5c0.4-0.2,0.8-0.3,1.3-0.4
					c0.2-0.1,0.5-0.1,0.7-0.1c0.3,0,0.5,0,0.8,0c0.2,0,0.5,0,0.8,0.1c0.2,0.1,0.5,0.1,0.7,0.2c0.2,0.1,0.4,0.2,0.7,0.3
					c0.2,0.1,0.4,0.2,0.5,0.3c0.1,0.1,0.3,0.2,0.4,0.4c0.1,0.1,0.2,0.2,0.2,0.4c0.1,0.2,0.1,0.3,0.1,0.3l-0.1,0c0,0,0-0.1-0.1-0.3
					c0-0.1-0.1-0.2-0.2-0.3c-0.1-0.1-0.2-0.2-0.4-0.3c-0.2-0.1-0.3-0.2-0.5-0.3c-0.2-0.1-0.4-0.1-0.6-0.2c-0.2-0.1-0.5-0.1-0.7-0.1
					c-0.2-0.1-0.5,0-0.7,0c-0.2,0-0.5,0-0.7,0c-0.2,0-0.5,0-0.7,0.1c-0.4,0.1-0.8,0.3-1.1,0.5c-0.3,0.2-0.5,0.4-0.7,0.5
					c-0.1,0.1-0.2,0.2-0.2,0.2L69.2,231z"/>
			</g>
			<g>
				<path fill="#21B3D6" d="M76.5,229c0,0,0,0.5-0.2,0.9c-0.1,0.2-0.2,0.4-0.3,0.6c-0.1,0.1-0.2,0.2-0.2,0.2l-0.2-0.2
					c0,0,0.3-0.2,0.6-0.6C76.4,229.5,76.5,229,76.5,229z"/>
			</g>
			<g>
				<path fill="#21B3D6" d="M84.2,244c0,0,0.3,0.3,0.8,0.5c0.3,0.1,0.6,0.3,0.9,0.3c0.2,0.1,0.4,0.1,0.5,0.1c0.2,0,0.4,0,0.6,0
					c0.8,0,1.7,0.2,2.2,0.5c0.3,0.1,0.5,0.3,0.6,0.4c0.1,0.1,0.1,0.3,0.1,0.3l0,0c0,0,0-0.1-0.2-0.2c-0.1-0.1-0.4-0.2-0.6-0.3
					c-0.6-0.2-1.4-0.3-2.2-0.3c-0.2,0-0.4,0-0.6,0c-0.2,0-0.4,0-0.6-0.1c-0.4-0.1-0.7-0.3-1-0.4c-0.3-0.2-0.5-0.4-0.6-0.5
					c-0.1-0.1-0.2-0.2-0.2-0.2L84.2,244z"/>
			</g>
			<g>
				<path fill="#21B3D6" d="M86.1,250.3c0.1-0.2,0.3-0.5,0.4-0.7c0.1-0.1,0.2-0.2,0.3-0.3c0.1-0.1,0.2-0.2,0.5-0.2
					c0,0,0.1,0,0.1,0.1l0.1,0.1c0,0.1,0.1,0.1,0.1,0.2l0.2,0.4l0.3,0.7c0.2,0.5,0.4,1,0.6,1.4c0.1,0.2,0.2,0.5,0.4,0.7
					c0.1,0.1,0.1,0.2,0.2,0.3l0.2,0.2l0,0l0.6,0.6l-0.8-0.2c-0.5-0.1-0.9-0.2-1.4-0.3c-0.5-0.1-0.9-0.2-1.4-0.2c-0.2,0-0.4,0-0.7,0
					c-0.2,0-0.4,0.1-0.6,0.2c-0.2,0.1-0.4,0.2-0.6,0.3c-0.2,0.1-0.4,0.2-0.7,0.2l-0.1-0.1c0.2-0.2,0.4-0.3,0.5-0.5
					c0.2-0.1,0.4-0.3,0.6-0.4c0.2-0.1,0.5-0.2,0.7-0.2c0.3-0.1,0.5,0,0.8-0.1c1,0,1.9,0.3,2.8,0.6l-0.2,0.4v0l-0.3-0.3
					c-0.1-0.1-0.2-0.2-0.2-0.4c-0.2-0.2-0.3-0.5-0.4-0.7c-0.2-0.5-0.4-1-0.6-1.5l-0.3-0.8l-0.1-0.4c0-0.1-0.1-0.1-0.1-0.2l-0.1-0.1
					c0,0,0,0,0,0c-0.1,0-0.2,0-0.3,0.1c-0.1,0.1-0.2,0.2-0.3,0.3c-0.2,0.2-0.3,0.4-0.4,0.7L86.1,250.3z"/>
			</g>
			<g>
				<path fill="#21B3D6" d="M91.6,248.9c0,0,0.2,0.7,0.7,1.6c0.3,0.5,0.6,1,1,1.5c0.2,0.3,0.4,0.5,0.7,0.7c0.2,0.2,0.5,0.5,0.8,0.8
					c0.4,0.7,0.5,1.5,0.4,2.2c-0.1,0.7-0.4,1.3-0.6,1.8c-0.3,0.5-0.6,0.9-0.8,1.1c-0.2,0.2-0.5,0.3-0.5,0.3l-0.2-0.6
					c0,0,0.1,0,0.3-0.2c0.2-0.2,0.5-0.5,0.8-0.9c0.3-0.4,0.5-1,0.6-1.6c0.1-0.6,0.1-1.3-0.3-1.9c-0.2-0.3-0.4-0.5-0.7-0.8
					c-0.3-0.3-0.5-0.5-0.7-0.8c-0.4-0.5-0.7-1.1-1-1.6c-0.5-1-0.7-1.7-0.7-1.7L91.6,248.9z"/>
			</g>
			<g>
				<path fill="#21B3D6" d="M101.1,246.6c0,0,0.4,0.7,0.6,1.9c0.1,0.3,0.1,0.6,0.1,1c0,0.3,0,0.7-0.1,1.1c-0.1,0.4-0.1,0.8-0.3,1.2
					c-0.1,0.4-0.4,0.7-0.6,1.1c-0.3,0.3-0.5,0.7-0.8,0.9c-0.3,0.2-0.6,0.5-1,0.7c-0.3,0.2-0.7,0.4-1,0.5c-0.3,0.1-0.6,0.2-0.9,0.3
					c-0.6,0.2-1.1,0.3-1.4,0.4c-0.3,0.1-0.5,0.1-0.5,0.1L95,255c0,0,0.2,0,0.5-0.1c0.3-0.1,0.8-0.1,1.4-0.3c0.3-0.1,0.6-0.2,0.9-0.3
					c0.3-0.1,0.6-0.3,0.9-0.4c0.3-0.1,0.6-0.4,0.9-0.6c0.3-0.2,0.5-0.5,0.8-0.8c0.2-0.3,0.4-0.6,0.6-1c0.2-0.3,0.2-0.7,0.3-1
					c0-0.4,0.1-0.7,0.1-1c0-0.3,0-0.6,0-0.9c-0.1-1.2-0.4-1.9-0.4-1.9L101.1,246.6z"/>
			</g>
			<g>
				<path fill="#21B3D6" d="M98.8,254.1c0,0,0.1,0.1,0.3,0.2c0.2,0.1,0.6,0.3,1,0.4c0.2,0,0.5,0.1,0.7,0.1c0.3,0,0.5,0,0.8-0.1
					c0.3-0.1,0.6-0.1,0.9-0.3c0.3-0.1,0.6-0.2,0.8-0.4c0.3-0.1,0.5-0.3,0.8-0.5c0.3-0.2,0.5-0.4,0.7-0.6c0.5-0.4,0.8-0.9,1.1-1.2
					c0.2-0.2,0.3-0.4,0.4-0.5c0.1-0.2,0.2-0.3,0.3-0.4c0.2-0.2,0.3-0.4,0.3-0.4l0.1,0c0,0-0.1,0.1-0.2,0.4c-0.1,0.1-0.2,0.3-0.3,0.4
					c-0.1,0.2-0.2,0.4-0.4,0.6c-0.3,0.4-0.6,0.9-1.1,1.3c-0.2,0.2-0.4,0.5-0.7,0.7c-0.2,0.2-0.5,0.4-0.8,0.6
					c-0.3,0.2-0.6,0.4-0.9,0.5c-0.3,0.2-0.6,0.2-0.9,0.3c-0.3,0-0.6,0.1-0.9,0.1c-0.3,0-0.6,0-0.8,0c-0.5-0.1-0.9-0.2-1.2-0.4
					c-0.3-0.1-0.4-0.3-0.4-0.2L98.8,254.1z"/>
			</g>
			<g>
				<path fill="#21B3D6" d="M97.1,255.2c0,0,0,0.1,0.1,0.3c0.1,0.2,0.2,0.4,0.4,0.6c0.1,0.1,0.2,0.3,0.3,0.4
					c0.1,0.1,0.2,0.3,0.4,0.4c0.1,0.1,0.3,0.3,0.4,0.4l0.4,0.4c0.2,0.1,0.3,0.3,0.4,0.5c0.1,0.2,0.2,0.4,0.3,0.6
					c0.2,0.4,0.3,0.7,0.3,1.1c0.1,0.6,0.1,1.1,0.1,1.1l-0.6,0c0,0,0-0.1,0-0.3c0-0.2,0-0.4,0-0.7c0-0.3-0.1-0.6-0.2-1
					c-0.1-0.2-0.1-0.4-0.2-0.5c-0.1-0.2-0.1-0.3-0.3-0.5l-0.4-0.5c-0.1-0.2-0.3-0.3-0.4-0.5c-0.1-0.2-0.3-0.3-0.4-0.4
					c-0.1-0.2-0.2-0.3-0.3-0.4c-0.2-0.3-0.3-0.5-0.3-0.7c-0.1-0.2-0.1-0.3-0.1-0.3L97.1,255.2z"/>
			</g>
			<g>
				<path fill="#21B3D6" d="M103.1,258.1c0,0,0.1-0.2,0.2-0.5c0-0.2,0.1-0.4,0.1-0.6c0-0.2,0-0.4,0-0.6c0-0.2,0-0.4-0.1-0.6
					c-0.1-0.2-0.1-0.4-0.2-0.5c-0.2-0.3-0.3-0.4-0.3-0.4l0.3-0.2c0,0,0.1,0.2,0.3,0.5c0.1,0.2,0.1,0.4,0.2,0.6c0,0.2,0,0.4,0,0.7
					c0,0.2,0,0.5-0.1,0.7c-0.1,0.2-0.1,0.4-0.2,0.6C103.2,257.9,103.1,258.1,103.1,258.1z"/>
			</g>
			<g>
				<path fill="#21B3D6" d="M101.3,250.7c0,0,0.3,0,0.8-0.1c0.2,0,0.5-0.1,0.8-0.2c0.1,0,0.3-0.1,0.4-0.2c0.1-0.1,0.3-0.1,0.4-0.2
					c0.3-0.2,0.6-0.3,0.8-0.5c0.2-0.2,0.5-0.3,0.6-0.5c0.3-0.3,0.5-0.6,0.5-0.6l0.3,0.2c0,0-0.2,0.2-0.6,0.6
					c-0.2,0.2-0.5,0.3-0.7,0.5c-0.3,0.2-0.6,0.3-0.9,0.4c-0.1,0.1-0.3,0.1-0.5,0.1c-0.2,0-0.3,0.1-0.5,0.1c-0.3,0-0.6,0.1-0.8,0.1
					C101.6,250.7,101.3,250.7,101.3,250.7z"/>
			</g>
			<g>
				<path fill="#21B3D6" d="M101.1,245.6c0,0,0.3-0.2,0.7-0.3c0.4-0.2,1-0.4,1.5-0.5c0.3-0.1,0.6-0.1,0.9-0.1c0.3,0,0.5-0.1,0.8,0
					c0.5,0,0.8,0,0.8,0l-0.1,0.3c0,0-0.3,0-0.7-0.1c-0.2,0-0.5,0-0.7,0c-0.3,0-0.6,0-0.8,0.1c-0.6,0.1-1.1,0.2-1.6,0.4
					C101.4,245.5,101.1,245.6,101.1,245.6z"/>
			</g>
			<g>
				<path fill="#21B3D6" d="M102.4,242.3c0,0,0.6,0.1,1.2,0.2c0.3,0.1,0.6,0.2,0.8,0.3c0.1,0.1,0.2,0.2,0.2,0.2c0.1,0.1,0.2,0,0.2,0
					l-0.7,0.3c0,0,0.2-0.1,0.1-0.1c0,0-0.1-0.1-0.1-0.1c-0.1-0.1-0.4-0.2-0.7-0.2c-0.3,0-0.5,0-0.8,0c-0.2,0-0.3,0.1-0.3,0.1
					L102.4,242.3z"/>
			</g>
			<g>
				<path fill="#21B3D6" d="M101.4,231.7c0,0.4,0,0.2,0,0.3c0,0,0,0,0,0c0,0,0.1,0,0.1,0c0.1,0,0.2,0,0.4,0c0.3,0,0.8-0.1,1.2-0.2
					c0.2-0.1,0.4-0.2,0.6-0.3c0.2-0.1,0.3-0.2,0.4-0.3c0.2-0.2,0.2-0.4,0.2-0.4l0.6,0.3c0,0-0.2,0.2-0.5,0.4
					c-0.2,0.1-0.3,0.2-0.5,0.3c-0.2,0.1-0.4,0.1-0.6,0.2c-0.4,0.1-0.9,0.1-1.2,0.1c-0.2,0-0.3,0-0.4,0c0,0-0.1,0-0.1,0c0,0,0,0,0,0
					c0,0,0-0.1,0,0.3L101.4,231.7z"/>
			</g>
			<path fill="none" stroke="#21B3D6" stroke-width="0.3157" stroke-miterlimit="10" d="M104.2,222.6c0,0,1.1-0.5,1.6,0.8"/>
			<g>
				<path fill="#21B3D6" d="M101.2,225.4c0,0,0.2,0,0.4,0.2c0.2,0.1,0.6,0.4,0.7,0.8c0.1,0.4-0.1,0.8-0.2,1
					c-0.1,0.2-0.3,0.4-0.3,0.4l-0.2-0.2c0,0,0.1-0.1,0.3-0.3c0.1-0.2,0.3-0.5,0.3-0.9c0-0.3-0.3-0.6-0.5-0.8
					C101.4,225.5,101.2,225.4,101.2,225.4L101.2,225.4z"/>
			</g>
			<g>
				<path fill="#21B3D6" d="M99.8,259.8c0,0,0.2,0.2,0.4,0.4c0.3,0.2,0.7,0.5,1.1,0.6c0.2,0.1,0.5,0.1,0.7,0c0.2,0,0.4-0.1,0.5-0.2
					c0.3-0.2,0.4-0.4,0.4-0.4l0.2,0.2c0,0-0.2,0.2-0.5,0.4c-0.2,0.1-0.4,0.2-0.6,0.2c-0.2,0-0.5,0-0.7-0.1c-0.5-0.2-0.8-0.5-1.1-0.8
					C99.9,260,99.8,259.8,99.8,259.8L99.8,259.8z"/>
			</g>
			<g>
				<path fill="#21B3D6" d="M76.1,231.3c0,0,0.2,0.1,0.2,0c0.1-0.1,0.1-0.1,0.2-0.2c0.1-0.1,0.2-0.2,0.4-0.4
					c0.2-0.1,0.4-0.3,0.6-0.4c0.2-0.2,0.4-0.3,0.7-0.4c0.2-0.2,0.5-0.3,0.8-0.4c0.3-0.1,0.6-0.2,0.9-0.3l0.5-0.1c0.2,0,0.3,0,0.5,0
					c0.3,0,0.7,0,1,0c0.3,0.1,0.6,0.1,0.9,0.2c0.3,0.1,0.6,0.2,0.9,0.2c0.3,0.1,0.5,0.2,0.8,0.3c0.5,0.2,0.8,0.4,1.1,0.6
					c0.1,0.1,0.2,0.2,0.3,0.2c0.1,0.1,0.1,0.1,0.1,0.1l-0.3,0.2c0,0-0.1-0.1-0.3-0.3c-0.2-0.2-0.6-0.4-1-0.6
					c-0.2-0.1-0.5-0.2-0.7-0.3c-0.3-0.1-0.5-0.1-0.8-0.2c-0.3-0.1-0.6-0.1-0.9-0.1c-0.3-0.1-0.6,0-1-0.1c-0.2,0-0.3,0-0.5,0
					l-0.5,0.1c-0.3,0-0.6,0.1-0.9,0.2c-0.3,0.1-0.6,0.2-0.8,0.3c-0.2,0.1-0.5,0.2-0.7,0.4c-0.2,0.1-0.4,0.3-0.5,0.4
					c-0.1,0.1-0.3,0.2-0.4,0.3c-0.1,0.1-0.2,0.2-0.2,0.2c-0.1,0,0,0.2,0,0.2L76.1,231.3z"/>
			</g>
			<g>
				<path fill="#21B3D6" d="M78.7,232.3c0,0,0.3-0.1,0.8-0.1c0.2,0,0.5,0,0.8,0.1c0.1,0,0.3,0,0.5,0.1l0.5,0.1
					c0.3,0.1,0.6,0.3,0.9,0.4c0.3,0.1,0.5,0.3,0.7,0.4c0.4,0.3,0.7,0.4,0.7,0.4l-0.2,0.2c0,0-0.3-0.2-0.6-0.4
					c-0.2-0.1-0.4-0.3-0.7-0.4c-0.3-0.1-0.5-0.3-0.8-0.4l-0.4-0.2c-0.1-0.1-0.3-0.1-0.4-0.1c-0.3-0.1-0.6-0.1-0.8-0.1
					C79,232.3,78.7,232.4,78.7,232.3L78.7,232.3z"/>
			</g>
			<g>
				<path fill="#21B3D6" d="M87.7,234.4c0,0,0.7,1,1.6,1.9c0.2,0.2,0.5,0.4,0.7,0.6c0.2,0.2,0.5,0.3,0.6,0.5
					c0.4,0.2,0.7,0.3,0.7,0.3l-0.1,0.3c0,0-0.3-0.2-0.7-0.4c-0.2-0.1-0.4-0.3-0.6-0.5c-0.2-0.2-0.4-0.4-0.7-0.6
					C88.4,235.4,87.7,234.4,87.7,234.4z"/>
			</g>
			<g>
				<path fill="#21B3D6" d="M66.3,248.1c0,0,0.1,0.2,0.2,0.5c0.2,0.3,0.4,0.8,0.8,1.3c0.2,0.3,0.4,0.5,0.6,0.8
					c0.2,0.3,0.5,0.5,0.8,0.7c0.3,0.2,0.7,0.4,1,0.6c0.3,0.2,0.8,0.3,1.1,0.5c0.4,0.2,0.8,0.2,1.2,0.3c0.4,0.1,0.8,0.2,1.2,0.2
					c0.8,0.2,1.5,0.2,2.1,0.2c0.3,0,0.6,0,0.9,0c0.3,0,0.5,0,0.7,0c0.4,0,0.6,0,0.6,0l0,0.2c0,0-0.2,0-0.6,0.1
					c-0.4,0-0.9,0.1-1.5,0.1c-0.3,0-0.7,0-1,0c-0.4,0-0.8,0-1.1-0.1c-0.4-0.1-0.8-0.1-1.2-0.2l-0.6-0.1l-0.3-0.1l-0.3-0.1
					c-0.4-0.2-0.8-0.3-1.2-0.5c-0.4-0.2-0.7-0.4-1-0.7c-0.3-0.3-0.6-0.5-0.8-0.8c-0.2-0.3-0.5-0.6-0.6-0.8c-0.4-0.5-0.6-1-0.8-1.4
					c-0.1-0.4-0.2-0.6-0.2-0.6L66.3,248.1z"/>
			</g>
			<g>
				<path fill="#21B3D6" d="M75.6,250.4c0,0,0.1,0.1,0.2,0.2c0.1,0.2,0.3,0.4,0.5,0.6c0.1,0.1,0.2,0.3,0.3,0.4
					c0.1,0.1,0.2,0.4,0.3,0.5c0.2,0.4,0.4,0.8,0.6,1.2c0.5,0.8,1,1.5,1.5,2c0.2,0.3,0.4,0.5,0.5,0.6c0.1,0.1,0.1,0.1,0.1,0.1
					c0,0-0.1,0-0.1,0l0,0.6c0,0-0.1,0-0.2-0.1c-0.1,0-0.2-0.1-0.2-0.2c-0.2-0.2-0.3-0.4-0.5-0.7c-0.4-0.6-0.9-1.3-1.3-2.2
					c-0.2-0.4-0.4-0.9-0.5-1.2c-0.1-0.2-0.1-0.4-0.3-0.5c-0.1-0.2-0.2-0.3-0.3-0.5c-0.2-0.3-0.4-0.5-0.5-0.7
					C75.7,250.5,75.6,250.4,75.6,250.4z"/>
			</g>
			<g>
				<path fill="#21B3D6" d="M65.2,248.9c0,0,0.3,0.6,0.6,1.6c0.3,1,0.6,2.3,0.4,3.8c-0.1,0.3-0.2,0.7-0.4,1l-0.2,0.2
					c0,0,0,0.1-0.1,0.1l-0.1,0.1c-0.1,0.1-0.2,0.2-0.4,0.3c-0.2,0.2-0.5,0.4-0.8,0.6c-0.3,0.2-0.5,0.3-0.8,0.4
					c-1,0.4-1.7,0.2-1.7,0.2l0-0.3c0,0,0.2,0,0.4,0c0.1,0,0.3,0,0.5-0.1c0.2,0,0.4-0.1,0.6-0.2c0.2-0.1,0.5-0.2,0.7-0.4
					c0.2-0.2,0.5-0.3,0.7-0.5c0.1-0.1,0.2-0.2,0.4-0.3l0.1-0.1l0.1-0.1l0.1-0.2c0.2-0.2,0.3-0.5,0.4-0.9c0.3-1.3,0-2.6-0.2-3.6
					C65.3,249.6,65.1,248.9,65.2,248.9L65.2,248.9z"/>
			</g>
			<g>
				<path fill="#21B3D6" d="M71.5,252.7c0,0,0.3,0.3,0.7,0.8c0.4,0.5,1,1.3,1.5,2.4c0.3,0.5,0.6,1.1,0.7,1.8
					c0.2,0.6,0.3,1.4,0.1,2.1c-0.1,0.2-0.2,0.4-0.2,0.5c-0.1,0.2-0.3,0.3-0.4,0.5c-0.3,0.3-0.6,0.4-0.9,0.7
					c-0.7,0.4-1.5,0.7-2.3,0.6c-0.8,0-1.6-0.4-2.3-0.5c-0.7-0.1-1.5,0-2.2-0.1c-1.5,0-2.9-0.2-4-0.5c-0.6-0.2-1.1-0.3-1.5-0.6
					c-0.2-0.1-0.4-0.2-0.6-0.3c-0.2-0.1-0.4-0.2-0.5-0.3c-0.3-0.2-0.5-0.4-0.6-0.6c-0.1-0.1-0.2-0.2-0.2-0.2l0.5-0.4
					c0,0,0.1,0.1,0.2,0.2c0.1,0.1,0.3,0.3,0.5,0.5c0.1,0.1,0.3,0.2,0.4,0.3c0.2,0.1,0.3,0.2,0.5,0.3c0.4,0.2,0.9,0.4,1.4,0.6
					c1.1,0.3,2.4,0.5,3.9,0.6c0.7,0.1,1.5,0,2.3,0.1c0.8,0.2,1.5,0.5,2.2,0.5c0.8,0.1,1.5-0.2,2.1-0.5c0.3-0.2,0.7-0.4,0.9-0.6
					c0.1-0.1,0.2-0.2,0.3-0.4l0.2-0.5c0.2-0.7,0.1-1.4-0.1-2c-0.2-0.6-0.4-1.2-0.7-1.7c-0.5-1-1.1-1.8-1.5-2.4
					C71.7,253.1,71.4,252.8,71.5,252.7L71.5,252.7z"/>
			</g>
			<g>
				<path fill="#21B3D6" d="M66,251.9c0,0,0.2,0.7,0.7,1.8c0.5,1,1.4,2.3,2.7,3.1l0.2,0.1l0.1,0.1l0.1,0.1c0,0,0,0,0.1,0.1
					c0,0,0,0,0,0.1c0,0.1-0.2,0.2-0.2,0.2l-0.1,0c-0.2-0.1-0.4-0.1-0.6-0.2c-0.4-0.1-0.7-0.2-1-0.4c-0.7-0.2-1.3-0.4-1.9-0.5
					c-0.5-0.1-1-0.1-1.3-0.1c-0.2,0-0.3,0.1-0.3,0.1c-0.1,0-0.1,0.1-0.1,0.1l-0.1-0.2c0,0,0,0,0.1-0.1c0.1,0,0.2-0.1,0.4-0.1
					c0.3-0.1,0.8-0.1,1.4,0c0.6,0.1,1.2,0.3,1.9,0.5c0.3,0.1,0.7,0.2,1,0.4c0.2,0.1,0.4,0.1,0.5,0.2c0,0,0,0,0,0c0,0-0.2,0-0.2,0.2
					c0,0.1,0,0.1,0,0.1c0,0,0,0,0,0c0,0,0,0,0,0l-0.1-0.1l-0.2-0.2c-1.3-0.9-2.2-2.2-2.6-3.3C66.1,252.7,66,251.9,66,251.9L66,251.9
					z"/>
			</g>
			<path fill="none" stroke="#21B3D6" stroke-width="0.3157" stroke-miterlimit="10" d="M74.5,258.4c0,0,0.9,0.5,2.6,0"/>
		</g>
		<path fill="#21B3D6" stroke="#21B3D6" stroke-width="1.698100e-02" stroke-miterlimit="10" d="M60.7,257.6c0,0-4.1,6.6-11,1.9
			c-1.1-1.7-1-1.3-1.6-1.9c-0.6-0.6-2.6-4.8,0-7.7c-0.5-0.4-2.1-2.3-0.6-4.8c-0.3-1-1.2-2.4,0.6-5.3c-0.4-0.8-1.8-4.5,1.2-6.5
			c-0.4-0.6-2.6-4.2,0.5-6.9c-0.4-0.6-1.2-3.5-0.7-4.7c-0.4-0.4-2.1-4.5,0.9-6.5c0.3-0.6,0.8-3.6,5.4-4.2c3,0.4,4.7,1.7,5.1,3
			c0.9,0.2,2,0.2,3.9,1.7c0.9,0.2,4.2,0.5,5.6,2.2c0.9,0.2,4.2-0.1,5,1.6c0.9-0.2,4.1-0.3,6,0.9c0.7-0.2,2.3-0.9,3.9-0.5
			c1.1-0.4,3.1-1.5,5.2-0.9c0.5-0.4,2.6-2,4.7-1.4c0.3-0.6,1.3-2.8,5.8-3c0.5-0.6,1.3-4,4.3-4.4c0.3-0.6,3.1-8.8,8.7-5.1
			c1.1,0.6,5.8,3.3,1.8,9.2c0.1,0.6,0,3.2-1.2,4.2c0.2,0.6,0.2,2.5-0.9,3.9c0.2,0.8,0.2,3.3-0.7,4.3c0.6,0.9,0.7,2.4,0.1,3.2
			c0.6,0.9,1.2,3.6,0.6,4.3c0.6,0.6,0.9,2.8,0.4,3.9c0.9,0.7,1.7,3.6,0.9,5.6c0.7,0.7,2.9,3.3,1.2,7c0.2,1,0.8,5.4-0.6,6.6
			c0.2,0.9,0.9,5.3-3.8,8.3c-0.6,1.3-2.1,3.8-6.8,3.4c-0.7,0.9-3.9,3.7-9.1-0.3c-0.4,0.6-4.2,1.8-6.9-1.7c-1-0.2-2-0.3-2-0.3
			s-0.2,1.6-0.6,2.4c0.6,1.3,2.5,5.8-0.2,9c0.3,1.7,0.4,5-1.5,7.8h-3c0,0-0.3-2-2-3.5c-1.3-2.4-2.7-3.9-2-10
			c-1.1-1.6-5.2-9.7,0.5-16c5.5-2.9,10-2,13.5,1.8c2.1-0.2,4.4,1.4,5.4,3c0,0,1.7-2.1,4.9,0.2c0.4-0.6,1-2,2.9-2.3
			c0.1-0.5,0.4-2.6,1.6-2.6c-0.2-0.5-1.4-3.3,0.4-6c-0.6-0.6-1.9-1.9-1.3-5.4c-0.5-0.4-2.3-1.8-1.1-5.3c-0.3-0.4-1.8-1.5-0.8-5.2
			c-0.4-0.9-0.4-3.2,0.5-4.2c0-0.7-0.7-2.3,0.7-4.2c-0.1-0.3-0.5-1.9,0.6-2.9c0-0.4,0.1-2,0.1-2s-1.6,4.5-6.5,4.6
			c-0.6,0.6-2,2.4-5,1.2c-0.4,0.4-2.8,2-6.7,1c-0.8,0.7-2.3,2.2-5.9,0.6c-0.4,0.4-3.4,2-6.5,0c-0.7,0.3-4.3,1.8-6.5-1.5
			c-0.6,0.4-3.8,2.1-7.3-0.9c0,0.4-0.5,2.6-1.3,2.9c0.2,0.6,1.1,4-0.7,4.8c0.4,0.8,1.3,4.1,0.1,5.3c0.7,0.7,1.3,1.3,1.3,2.1
			c0.4,0.5,2.4,3.1,0.8,4.3c1.3,0.8,3.2,2.7,2.6,5.2c-0.6,2.5-0.6,3.3-2.7,5c0.4,0.7,1.5,1.9,1.8,2.6c0.3,0.7,1.1,2.9,1.4,3.3
			c0.2,0.4,1.2,2.2,0.5,2.5c-0.7,0.3-2.1-0.7-2.5-2.8C62.1,259.3,61.4,257.7,60.7,257.6z"/>
	</g>
	<path id="bazo_1_" fill="#2AA8CF" d="M111.9,190.1c-0.8-0.1-2.1-2.2-4.3-0.5c-2.2,1.8,0,4.4,0,4.4c0,0,0,0,0,0
		c-0.3,0.2,0.2,1.4,0,2.2c-0.2,0.9-1.2,0.9-1.4,1c-0.2,0.1-0.7,0.5-0.7,0.5l0.5,0.6c0,0,0.7-0.4,0.8-0.4c0.1,0,0.6-0.1,0.9-0.4
		c0.3-0.3,0.6-0.7,0.9-0.5c0.3,0.1,1.5,0.9,2,1.1c0.3,0.8,0.3,1.3,0.5,1.6c1.7,1.6,2.6,0.8,3.3-0.8
		C115.9,195.5,112.7,190.3,111.9,190.1z M108.5,196.1c-0.3,0.1-0.4-0.5-0.4-0.7c0-0.1,0.1-0.5,0.3-0.7c0.2,0.2,0.4,0.4,0.6,0.7
		C108.9,195.6,108.8,196.1,108.5,196.1z M109,196.4c-0.1-0.1,0.1-0.5,0.3-0.7c0.2,0.3,0.4,0.6,0.6,0.8c-0.1,0.1-0.3,0.2-0.5,0.2
		C109.4,196.7,109.1,196.5,109,196.4z M109.7,197.1c-0.1-0.2,0.2-0.1,0.5-0.2c0.1,0.2,0.2,0.3,0.3,0.5
		C110.1,197.3,109.7,197.3,109.7,197.1z"/>
	<path id="estomago_2_" fill="#B31C9E" d="M78.3,217.1c0.1,0.4,9.5,13.9,25.7,3.8c7.1-5.3,11.5-19.3,2.9-22.9
		c-8.6-3.6-9.6,0.9-12.9,0.3c-2.6-0.4-4.8-5.1-5.7-8.3c-0.2-0.8-1.6-17.3-1.6-17.8h-4.3c0,0,1.1,16.6,1.3,18
		c0.3,3.4,1.6,9.8,7.3,12.8c3.2,2.5,2,8.1-2,7.8c-4.1-0.3-4.9-0.2-7.5,0.3C81.4,211.2,76.8,212.3,78.3,217.1z"/>
	<path id="higado_2_" fill="#8015B8" d="M58,212c0,0-9.4-15.1,3.2-28c3.8-1.9,10.9-3.7,12.3-3.4c1.5,0.3,14.7,1.2,24.5,1.5
		c9.8,0.3,9.8,1,5.9,5.1c-4,4.1-8.7,11.9-13.1,11c-1.5-0.1-2.9,4.1-7.2,5.7c0,0-5.9,1.3-6.7,1.6c-0.8,0.3-4.2,3.3-5.5,3.3
		c-1.3,0-2.1-1.2-2.8-0.9C68,208.2,64.7,212.4,58,212z"/>
	<path id="corazon_2_" fill="#8015B8" d="M105.5,162.9c-0.8-4.7-5.1-4.4-5.1-4.4s1.9-0.5,3-2c1-1.3,0.3-5.3,0.3-5.5
		c1-1.3,2.2-1.4,2.4-1.4c0.4,0,1.1-0.3,1.1-0.3c0,0,0.1-0.5,0.1-0.5c-0.6,0.5-1.3,0.4-1.3,0.4c-1.5,0.1-2.4,1.4-2.4,1.4
		c-0.5-1.2-0.6-1.9-0.6-2.9c0-1,0.9-1.7,0.9-1.7l0.1-0.7c0,0-0.2,0.3-0.7,0.8c-0.5,0.6-1.1,2.3-0.6,3.5c0.6,1.2,0.4,2.6,0.4,2.6
		s-0.7,0.3-1.1,0.3c-1.2,0-3.4-0.5-3.4-0.5s-0.3-1.2-0.6-2.1c-1-2.4-2.7-3.3-2.9-3.6c-0.3-0.7,0-4.7,0-4.7c-1.3,0.1-1.9-0.5-1.9-0.5
		c-0.2,3.2-0.2,4.9-0.5,4.8c-0.3,0-0.7-4.7-0.7-4.7l-1.7,0.1c0,0-0.1,0.8,0.1,3.2c0.2,2.4-0.3,2-0.3,2c-0.6,0.1-0.9-4.3-0.9-4.3
		l-1.7,0.3c0.9-4.4,2.7-7.3,2.7-7.3l-2.3-2c-1.2,1.4-2.9,6.2-2.9,6.2c-0.3-0.4-1.4-3.1-1.4-3.1l-2.7,0.5c1.5,2.5,1.7,17.3,1.7,17.3
		s-1.9,3-2.7,4.8c-2,5.9,1,8.3,1,8.3c-0.1,4.7,2.1,7.1,2.7,7.7c4.9,5.1,11.4,5.8,12.2,5.6c1.6-0.6,4-5.8,4.3-6.5
		c2.6-6.9-0.6-10.4-0.6-10.4s0.3-0.3,0.4-0.8c0.6-1.8,1.4-1.7,2.8-1.5c1.4,0.2,2.3,2.8,2.5,3.7c0.2,0.9,2.4,7.1,2.4,7.1l0.5-0.5
		C107.8,171.3,106.2,167.6,105.5,162.9z M86.7,149.9c0,0,0,0-0.3-0.8c-0.3-0.8-0.2-0.7,0.6-5.5l0.1,0.6c0,0,0.4,3,0.6,3.5
		C87.8,148.3,86.7,149.9,86.7,149.9z M91.8,151.6c-0.3,0.1-1.3,0.3-1.3,0.3s0.4-1,1.8-1c1.4,0,1.9,0.6,1.9,0.6
		S92.1,151.5,91.8,151.6z M99.3,156.6c-0.7,0.1-1.8-0.7-3-1.2c-1.2-0.5-2.9,1.6-2.9,1.6s0.1-0.2,0.9-1.4c0.8-1.2,2.2-0.8,2.8-0.8
		c5,0.2,5.5-0.3,5.5-0.3C102.3,155.8,100,156.5,99.3,156.6z"/>
	<path id="cerebro_3_" fill="#21B3D6" stroke="#3FA818" stroke-width="1.060500e-02" stroke-miterlimit="10" d="M84.5,14.9
		c0,0,3.3-3.5,8.3,0c0,0,8.5,3.1,9.4,10.9c0.5,0.2,3.7,9.9-3.9,14.1c0.1,1-0.2,5.7-7.9,6c-0.4,0-4.7,0.9-4.6,6.6c0,0.6-0.1,1-0.1,1
		H83c0,0-0.1-0.5-0.1-1c0.1-5.7-4.2-6.6-4.6-6.6c-7.8-0.3-8-4.9-7.9-6c-7.6-4.2-4.4-13.9-3.9-14.1C67.5,18,76,14.9,76,14.9
		c5.1-3.5,8.3,0,8.3,0H84.5z"/>
</g>
</svg>
