<?xml version="1.0" encoding="utf-8"?>
<!-- Generator: Adobe Illustrator 18.0.0, SVG Export Plug-In . SVG Version: 6.00 Build 0)  -->
<!DOCTYPE svg PUBLIC "-//W3C//DTD SVG 1.1//EN" "http://www.w3.org/Graphics/SVG/1.1/DTD/svg11.dtd">
<svg version="1.1" xmlns="http://www.w3.org/2000/svg" xmlns:xlink="http://www.w3.org/1999/xlink" x="0px" y="0px"
	 viewBox="0 0 289.5 587.4" enable-background="new 0 0 289.5 587.4" xml:space="preserve">

<script type="text/javascript"><![CDATA[
    window.onload=function () {
		var colorSelected = "#F7FE2E";
		var bodyPart = document.getElementsByClassName("bodyPart");
		var currentFill = '';
		var currentId = '';
		var lastId = '';
		var lastFill = '';

		var tapEvent = function() {
		    var currentIdSelected = this.getAttribute("id");

		    if(currentIdSelected != 'cuerpo_2_'){

		    	if(lastId != currentIdSelected){
		    		// --------------------------------------------
		    		// CONDITION FOR RESTORE COLOR FILL OF LAST ID
		    		// --------------------------------------------
		    		if(lastId != ''){
		    			restoreColorById(lastId);
		    		}

		    		// --------------------------------------------
		    		// SET NEW FILL COLOR TO ITEM SELECTED
		    		// --------------------------------------------
		    		this.setAttribute("fill", colorSelected);

		    		// --------------------------------------------
		    		// SAVE LAST ID SELECTED
		    		// --------------------------------------------
		    		lastId = currentIdSelected;

		    		// --------------------------------------------
		    		// RETURN CURRENT ITEM SELECT
		    		// --------------------------------------------
		    		alert(currentIdSelected);
		    	}
		    }
		};

		function restoreColorById(idPart){
			switch(idPart) {
			    case 'bazo_1_':
			    	document.getElementById(idPart).setAttribute('fill', '#2AA8CF');
			        break;
			    case 'cerebro_3_':
			    	document.getElementById(idPart).setAttribute('fill', '#21B3D6');
			        break;
			    case 'pulmones_2_':
			    	document.getElementById(idPart).setAttribute('fill', '#21B3D6');
			    	break;
				case 'corazon_2_':
					document.getElementById(idPart).setAttribute('fill', '#8015B8');
					break;			   
			    case 'higado_2_':
					document.getElementById(idPart).setAttribute('fill', '#8015B8');
			    	break;
			    case 'estomago_2_':
					document.getElementById(idPart).setAttribute('fill', '#B31C9E');
			    	break;
			    case 'intestinos_2_':
			    	document.getElementById(idPart).setAttribute('fill', '#21B3D6');
			    	break;
			    default:
			        break;
			} 
		}

		for (var i = 0; i < bodyPart.length; i++) {
		    bodyPart[i].addEventListener('click', tapEvent, false);
		}


	}
]]></script>



<g id="hombre">
	<path id="cuerpo_2_" class="bodyPart" fill="#261975" stroke="#261975" stroke-width="0.5" stroke-miterlimit="10" d="M94.3,203.8
		c2.8,5.3,1.2,24.8,1.2,24.8c-1.8,8.8-1.1,22.9-1.1,22.9c-3.4,4.3-5.2,28.8-5.2,28.8c-4.8,10-7.6,33.8-8.2,54.5s7.5,61.5,7.2,66
		c-2,10.2-0.5,19.8-0.8,22.2s-3,10.2-4.8,19.8s3.2,36.5,5.7,43.8s9.6,38.4,9.1,42.8s0.6,9.9,0.6,9.9s2.9,5.9-4.2,17.1
		s-5.2,17.6-5.2,17.6c-0.3,4.4,2.6,3.1,2.6,3.1s-0.7,1.2,0.5,2.3c1.2,1.1,2.5,0.3,2.5,0.3s1.5,2.6,3.4,1.9c1.1-0.4,1.7-1.4,1.7-1.4
		s1.7,2.5,4.1,2.5s3-3.8,3-3.8s1.3,3.3,4.7,3.3c3.3,0,5.3-5.5,6.8-9.5s-0.2-16.2-0.2-16.2s1.3-15.7,1.7-16.2s2-4.5,0.8-7.2
		c-1.2-2.7-4-20-4.5-24.3c-0.5-4.3,3.8-27.5,5.5-37.2c1.7-9.7-0.5-22.7-2.5-29.7s1.7-19.8,3.5-25.3s1.7-13.7,1.7-13.7
		s3.3-8.8,3.7-13.2c-0.7-8.8,3.3-22.3,8.5-41c5.2-18.7,4.2-32.8,4.2-32.8h5.2c0,0-0.2,2.2,0,12.3c0.2,10.2,10.5,36.3,11.5,49.7
		c1,13.3,5,23.2,4.6,23.8c-0.4,0.7,0.6,9.7,2.2,13.7c1.7,4,3.5,14.2,3.5,14.2c1.3,7-2,8.2-2.8,22c-1.3,21.3,2,24.5,4.3,33.3
		c2.3,8.8,2.4,17.6,2.6,24.6s-3,13.1-5.4,18.6s1,8.6,1.6,9.8s1.5,15.4,1.2,17.1s-0.7,3.8,0.1,13.9s8.2,11,10.8,9.9
		c2.6-1.1,0.4-4.8,0.4-4.8s2.8,5,4.8,4.8s2.6-2.7,2.6-2.7s1.4,2.2,3.1,1.4s0.9-3.6,1.1-2.9s2.1,1.1,3.3,0.4s0.8-3.1,0.9-2.8
		s1.6,0.9,2.9,0s0.8-7.3,0.3-9.6s-6.4-11.6-8.5-15.4c-2.2-3.8-1.7-11.7-1.3-15.2c0.3-3.5-0.7-11-0.8-15c-0.2-4,5.2-28,5.7-30.5
		s6.2-17.3,7.3-31.7c1.2-14.3-3.5-30.8-3.5-30.8s0.3-10.8,0.2-15.2c-0.2-4.3-2.2-23.8-2.2-23.8s5.3-28.7,5.7-56.8
		c0.3-28.2-13.3-75.7-13.3-75.7s-0.2-19.5-0.2-21.7c0-2.2-1.8-7.2-2-13.5c-0.2-6.3,9.4-34.4,9.4-34.4s1.5,6,4.2,14s3.2,25,6.8,39
		c3.5,14,21.6,47.5,23,51.1s-0.9,15.2-0.8,19.8s2.7,15.6,2.7,15.6c1.8,15.3,4.1,21.7,6.8,20.2s0.3-21.2,0.3-21.2s3.1,10.1,3.9,17.9
		s2.8,10.4,5.2,10.2c2.5-0.2,1.9-3.1,1.9-3.1s0.8,5.3,5,4.5c4.3-0.9,2.1-8.1,2.1-8.1c1.4,2.8,4.4,1.8,5.5,0.4
		c1.4-1.8-1.8-37.2-1.8-37.2s3.4,1.8,3.9,2.7c0.5,0.9,5.4,5.5,7.9,3.6c2.5-1.9-2.1-8.2-2.6-8.9s-1.6-2.1-2.1-2.6
		c-0.5-0.5-7.5-6.1-8-7.3s-9.7-6.7-10.8-8.2c-1.2-1.5-5.2-27.2-7.2-47.2c-2.2-21.7-8.5-36-9.7-39.3c-1.2-3.3-0.3-2.2-1.7-11
		c-0.7-12.2-5.3-30.3-5.3-30.3s0,0-0.2-16.7c-2.2-30.7-17.2-33.5-37.8-38.8s-25.2-12.8-25.2-12.8l0.6-18.7c1.2-3.1,1.6-9.6,1.6-9.6
		s1.8,1.9,3.1,1.6s4-5.2,4.5-8c0.6-3.3,0.7-12.2-0.9-12.4s-2.8,0.6-2.8,0.6s5-36.1-27.8-36s-24.2,37.5-24.2,37.5s-1.4-1.2-3-1.2
		c-1.6,0-2,4-2.1,7.5s2.6,11.7,5,12.1s3.5-2.3,3-0.9s1.7,10,1.7,10s0.7,12.5,0.5,17.7c-0.2,5.2-29.8,14-33.5,13.8
		c-3.7-0.2-15.5,6.2-24,16s-5.9,36.7-5.9,36.7s-3.5,8.2-4.5,12.5s-2.8,28.5-2.8,28.5c-4.5,4.8-8.7,43.3-8.7,43.3
		c-0.2,20.1-1.8,46-2.8,47.6c-1,1.6-9.7,7.8-10,9.1c-0.4,1.3-6.8,7.5-7.2,8c-0.4,0.5-1.3,2-1.8,2.8c-0.5,0.8-4.5,7.4-1.8,9.1
		c2.7,1.7,7.1-3.3,7.6-4.3c0.4-1,3.7-3,3.7-3s0.1,35.5,1.6,37.2c1.1,1.3,4.2,2,5.4-0.9c0,0-1.5,7.5,2.8,7.9c4.3,0.5,4.6-4.9,4.6-4.9
		s-0.3,2.9,2.2,2.9c2.5,0,4.3-2.8,4.3-10.6c0-7.8,2.2-18.2,2.2-18.2s-0.5,19.9,2.3,21.1c2.8,1.2,4.5-5.3,4.9-20.8
		c0,0,1.5-11.1,1.2-15.7c-0.3-4.6-3.6-15.9-2.6-19.7c1-3.7,16-38.8,18.2-53c0,0,10.1-37.6,14.2-50.8L94.3,203.8z"/>
	<g>
		<path fill="#144872" d="M111.7,280c2.7-2.4,2.9-3.5,3.6-7c0.7-3.5-1.7-6.2-3.5-7.3c2.2-1.7-0.5-5.3-1.1-6c0-1.2-0.9-1.9-1.8-3
			c1.6-1.5,0.4-6.2-0.2-7.3c2.5-1.2,1.3-5.9,1-6.7c1.1-0.4,1.7-3.5,1.7-4.1c4.7,4.1,8.9,1.7,9.8,1.2c2.9,4.6,7.8,2.5,8.7,2.1
			c4.2,2.8,8.2,0.6,8.7,0c4.8,2.3,6.9,0.2,7.9-0.8c5.2,1.4,8.3-0.8,8.9-1.4c4,1.7,5.9-0.8,6.7-1.7c6.5-0.1,8.7-6.4,8.7-6.4
			s-0.1,2.3-0.1,2.8c-1.4,1.4-0.8,3.6-0.7,4c-1.9,2.7-1.1,5-1,5.9c-1.2,1.4-1.2,4.7-0.7,5.9c-1.3,5.2,0.7,6.7,1.1,7.3
			c-1.6,4.8,0.7,6.8,1.4,7.4c-0.9,5,0.9,6.7,1.7,7.6c-2.4,3.7-0.8,7.6-0.5,8.3c-1.5,0.1-2,3-2.1,3.7c-2.5,0.5-3.4,2.4-3.9,3.2
			c-4.3-3.2-6.6-0.2-6.6-0.2c-1.4-2.3-4.5-4.6-7.3-4.2c-4.6-5.2-10.6-8.7-17.9-4.6c0,0-2,0.6-2.9,0c0-0.2,1.2,3.3-4.1,3.9
			c-1.2-0.2-2.3-0.6-4-0.6c-1.7,0-5.2-0.1-7.5-1.4C113.5,279.5,111.7,280,111.7,280z"/>
		<g>
			<g>
				<path fill="#21B3D6" d="M117.7,265.4c0.8-0.7,1.6-1.4,2.5-2c0.4-0.3,0.9-0.6,1.4-0.9c0.5-0.3,0.9-0.5,1.4-0.8
					c0.5-0.2,1-0.4,1.5-0.6l0.8-0.2c0.3-0.1,0.5-0.1,0.8-0.2c0.3-0.1,0.5-0.1,0.8-0.1c0.3,0,0.6,0,0.8,0c0.3,0,0.6,0,0.8,0.1
					l0.8,0.3l0,0l0,0l0.5,0.4c0.2,0.1,0.4,0.2,0.5,0.4l0.5,0.5c0.1,0.2,0.3,0.4,0.4,0.5c0.1,0.1,0.1,0.2,0.1,0.3l0.1,0.3
					c0,0.2,0.1,0.5,0.1,0.7c0,0.5,0,0.9,0,1.2l-0.7-0.2v0c0.3-0.5,0.6-0.9,1-1.2c0.2-0.2,0.4-0.3,0.7-0.4c0.2-0.1,0.5-0.2,0.7-0.3
					c0.3-0.1,0.5-0.1,0.8-0.1c0.3,0,0.5,0,0.8,0.1c0.2,0.1,0.5,0.1,0.7,0.2l0.7,0.4c0.2,0.1,0.4,0.3,0.6,0.4
					c0.2,0.1,0.4,0.3,0.6,0.5c0.3,0.3,0.7,0.7,1,1.1c0.3,0.4,0.6,0.7,0.9,1.1l0.8,1.2l-0.1,0.1l-0.9-1.1c-0.3-0.4-0.6-0.7-0.9-1.1
					c-0.3-0.4-0.7-0.7-1-1c-0.2-0.2-0.4-0.3-0.6-0.4c-0.2-0.1-0.4-0.3-0.6-0.4l-0.6-0.3c-0.2-0.1-0.4-0.1-0.7-0.2
					c-0.2-0.1-0.4,0-0.7-0.1c-0.2,0-0.4,0.1-0.6,0.1c-0.2,0.1-0.4,0.1-0.6,0.3c-0.2,0.1-0.4,0.2-0.5,0.4c-0.3,0.3-0.6,0.7-0.8,1l0,0
					l-0.7,1.2l0-1.4c0-0.4,0.1-0.8,0.1-1.2c0-0.2-0.1-0.4-0.1-0.5l-0.1-0.2c0-0.1-0.1-0.2-0.1-0.2l-0.3-0.5l-0.4-0.4
					c-0.1-0.1-0.3-0.3-0.4-0.4l-0.5-0.4l0,0l-0.7-0.3c-0.2-0.1-0.5-0.1-0.7-0.1c-0.2-0.1-0.5,0-0.8,0c-0.3,0-0.5,0-0.8,0
					c-0.3,0-0.5,0.1-0.8,0.1l-0.8,0.2c-0.5,0.2-1,0.3-1.5,0.6c-0.5,0.2-1,0.5-1.4,0.7c-0.5,0.3-0.9,0.5-1.4,0.8
					C119.5,264.1,118.6,264.8,117.7,265.4L117.7,265.4z"/>
			</g>
			<g>
				<path fill="#21B3D6" d="M119.6,269.4c0.8-0.8,1.7-1.6,2.7-2.3c0.5-0.4,1-0.7,1.5-0.9c0.5-0.3,1.1-0.5,1.8-0.5
					c0.3,0,0.6,0.1,0.9,0.3c0.3,0.2,0.4,0.5,0.5,0.8c0.2,0.6,0.3,1.2,0.5,1.7c0.2,0.5,0.5,1,1,1.3c0.4,0.3,1,0.5,1.5,0.7l0,0l-0.1,0
					c0.7,0,1.4-0.3,2.1-0.6c0.3-0.2,0.7-0.4,1.1-0.5c0.4-0.1,0.9-0.1,1.3,0.1c0.4,0.2,0.7,0.6,0.9,0.8l0.8,0.9
					c0.5,0.6,1.1,1.1,1.6,1.6c0.6,0.5,1.2,0.9,1.9,1c0.7,0.1,1.4,0.1,2-0.4c0.6-0.4,1.1-1,1.4-1.7c0.4-0.6,0.6-1.4,0.7-2.1
					c0.3-1.5,0-3-0.6-4.4c-0.6-1.4-1.6-2.6-2.7-3.6c-1.1-0.9-2.7-1.4-4.2-1.4c-1.5-0.1-3,0.3-4.5,0.9l0,0c1.3-0.8,2.9-1.3,4.5-1.3
					c0.8,0,1.6,0.1,2.4,0.3c0.8,0.2,1.5,0.6,2.2,1.1c1.2,1.1,2.2,2.3,2.9,3.8c0.7,1.4,0.9,3.1,0.7,4.7c-0.1,0.8-0.4,1.6-0.8,2.3
					c-0.4,0.7-0.9,1.4-1.6,1.9c-0.2,0.1-0.4,0.2-0.5,0.3c-0.1,0-0.2,0.1-0.3,0.1c-0.1,0-0.2,0.1-0.3,0.1c-0.4,0.1-0.9,0.1-1.3,0
					c-0.8-0.2-1.5-0.6-2.2-1.1c-0.6-0.5-1.2-1.1-1.7-1.6l-0.8-0.9c-0.3-0.3-0.5-0.6-0.8-0.7c-0.5-0.3-1.2,0-1.9,0.4
					c-0.7,0.4-1.5,0.7-2.3,0.7l0,0l0,0h0c-0.6-0.2-1.2-0.4-1.7-0.8c-0.5-0.4-0.9-1-1.1-1.6c-0.2-0.6-0.2-1.2-0.4-1.8
					c-0.1-0.3-0.2-0.5-0.4-0.7c-0.2-0.2-0.5-0.3-0.7-0.3c-0.6-0.1-1.1,0.1-1.7,0.4c-0.5,0.2-1,0.5-1.5,0.9
					C121.4,267.8,120.4,268.6,119.6,269.4L119.6,269.4z"/>
			</g>
			<g>
				<path fill="#21B3D6" d="M120.6,263.4c-0.6-0.3-1.2-0.7-1.7-1.1c-0.2-0.2-0.5-0.5-0.7-0.8c-0.1-0.1-0.2-0.3-0.3-0.4
					c-0.1-0.1-0.1-0.3-0.2-0.5c-0.1-0.2-0.1-0.3-0.2-0.5c0-0.2-0.1-0.3-0.1-0.5l0-0.5l0-0.5c0-0.3,0.1-0.7,0.2-1
					c0.1-0.3,0.2-0.6,0.3-1l0,0c0-0.3,0.1-0.5,0-0.7c0-0.2-0.2-0.4-0.4-0.5c-0.2-0.2-0.4-0.3-0.6-0.5c-0.2-0.2-0.3-0.5-0.4-0.7
					c-0.4-1-0.4-2.2-0.2-3.3c0.2-1.1,0.8-2.1,1.7-2.8c0.2-0.2,0.5-0.3,0.7-0.5l0.8-0.4l0.8-0.3c0.3-0.1,0.5-0.1,0.8-0.2
					c1.1-0.2,2.3,0.1,3.2,0.7c0.9,0.5,1.7,1.3,2.7,1.6c0.2,0.1,0.4,0.1,0.7,0.1c0.3,0,0.5,0,0.8,0c0.5,0,1-0.1,1.6-0.1
					c1.1-0.1,2.1-0.3,3.2-0.2c0.5,0.1,1.1,0.1,1.6,0.3c0.5,0.1,1,0.4,1.5,0.7c1,0.5,1.9,1.1,2.8,1.7c0.9,0.6,1.8,1.2,2.6,1.9l1.3,1
					c0.4,0.3,0.8,0.7,1.3,0.9c0.9,0.5,2,0.3,3,0.2c1.1-0.1,2.2,0,3.2,0.3c1.1,0.3,2,0.8,2.9,1.3l2.9,1.4l-0.1,0.2l-2.9-1.4
					c-1-0.4-1.9-1-2.9-1.2c-1-0.3-2.1-0.4-3.1-0.3c-1,0-2.2,0.3-3.3-0.3c-0.5-0.3-0.9-0.6-1.3-0.9l-1.3-1c-0.9-0.6-1.7-1.2-2.6-1.8
					c-0.9-0.6-1.8-1.1-2.7-1.6c-0.9-0.5-1.9-0.9-2.9-0.9c-1-0.1-2.1,0.1-3.1,0.2c-0.5,0.1-1.1,0.1-1.6,0.1c-0.3,0-0.5,0-0.8,0
					c-0.2,0-0.6-0.1-0.8-0.1c-1.1-0.4-1.9-1.2-2.8-1.7c-0.9-0.5-1.9-0.8-2.9-0.7c-0.3,0-0.5,0.1-0.7,0.2l-0.8,0.3l-0.7,0.3l-0.6,0.4
					c-0.8,0.6-1.3,1.6-1.6,2.6c-0.2,1-0.2,2.1,0.2,3c0.1,0.2,0.2,0.4,0.4,0.6c0.2,0.2,0.4,0.3,0.6,0.5c0.2,0.2,0.4,0.4,0.5,0.7
					c0.1,0.3,0,0.6,0,0.9l0,0l0,0c-0.1,0.3-0.2,0.6-0.3,0.9c-0.1,0.3-0.2,0.6-0.2,1l0,0.5l0,0.5c0,0.2,0.1,0.3,0.1,0.5
					c0,0.2,0.1,0.3,0.1,0.5c0.4,1.2,1.5,2.2,2.6,2.7L120.6,263.4z"/>
			</g>
			<g>
				<path fill="#21B3D6" d="M129.6,253.6c0,0,0.5,0.3,1,1c0.3,0.3,0.5,0.8,0.7,1.3c0.2,0.5,0.3,1.1,0.3,1.7c0,0.3,0,0.6-0.1,0.9
					c-0.1,0.3-0.1,0.6-0.2,0.8c-0.2,0.5-0.4,1-0.6,1.3c-0.2,0.4-0.4,0.7-0.5,0.9c-0.1,0.2-0.2,0.3-0.2,0.3l-0.6-0.4
					c0,0,0.1-0.1,0.2-0.3c0.1-0.2,0.4-0.4,0.5-0.8c0.2-0.3,0.4-0.8,0.6-1.2c0.1-0.2,0.1-0.5,0.2-0.7c0.1-0.2,0.1-0.5,0.1-0.8
					c0-0.5,0-1.1-0.2-1.5c-0.1-0.5-0.3-0.9-0.6-1.2c-0.4-0.7-0.9-1-0.9-1L129.6,253.6z"/>
			</g>
			<g>
				<path fill="#21B3D6" d="M127.3,258.6c-0.5-0.4-1.1-0.7-1.8-0.8c-0.3,0-0.6,0-0.9,0.1c-0.3,0.1-0.5,0.3-0.8,0.5h0l-0.7,0.5
					l0.3-0.8c0.4-0.8,0.5-1.8,0.6-2.7c0-0.5,0-0.9-0.1-1.4c-0.1-0.4-0.2-0.9-0.5-1.1l0,0l-0.6-0.9l0.9,0.4c0.5,0.2,1.1,0.4,1.7,0.4
					l0.4,0.1l0.4,0l0.9-0.1c0.3,0,0.6-0.1,0.9-0.1c0.3,0,0.7,0,1,0.2c0.3,0.2,0.5,0.5,0.7,0.6c0.1,0.1,0.2,0.1,0.3,0.1
					c0.1,0,0.3,0,0.4,0.1c0.6,0,1.1,0,1.8,0c0.6,0,1.2,0,1.9,0.1c0.6,0.1,1.2,0.3,1.8,0.6c0.5,0.3,1,0.8,1.4,1.2
					c0.8,0.9,1.6,1.8,2.5,2.5c0.5,0.3,1,0.6,1.5,0.8c0.3,0.1,0.6,0.2,0.8,0.2c0.3,0.1,0.6,0.1,0.9,0.1c0.6,0,1.2,0,1.8-0.1
					c0.6-0.1,1.2-0.1,1.8-0.1c0.3,0,0.6,0.1,0.9,0.2c0.3,0.1,0.5,0.3,0.8,0.4c0.5,0.4,1,0.7,1.4,1.2l0,0c-0.5-0.3-1-0.6-1.5-0.9
					c-0.3-0.1-0.5-0.2-0.8-0.4c-0.2-0.1-0.5-0.2-0.8-0.2c-0.6,0-1.2,0.1-1.8,0.1c-0.6,0.1-1.2,0.1-1.8,0.1c-0.3,0-0.6,0-0.9-0.1
					c-0.3,0-0.6-0.1-0.9-0.2c-0.6-0.2-1.1-0.5-1.6-0.9c-1-0.8-1.8-1.7-2.6-2.6c-0.4-0.4-0.8-0.8-1.3-1.1c-0.5-0.3-1.1-0.4-1.6-0.4
					c-0.6-0.1-1.2,0-1.7,0c-0.6,0-1.2,0.1-1.8,0c-0.2,0-0.3-0.1-0.5-0.2c-0.2-0.1-0.3-0.2-0.4-0.3c-0.2-0.3-0.3-0.5-0.6-0.7
					c-0.2-0.1-0.5-0.2-0.8-0.2l-0.9,0.1l-0.9,0.1l-0.5,0l-0.5,0c-0.6,0-1.2-0.1-1.9-0.3l0.3-0.4l0,0c0.4,0.4,0.6,0.9,0.7,1.4
					c0.1,0.5,0.1,1,0,1.5c-0.1,1-0.3,1.9-0.7,2.9l-0.4-0.3l0,0c0.3-0.2,0.6-0.4,1-0.5c0.4-0.1,0.7-0.1,1.1,0
					C126.2,257.7,126.8,258.1,127.3,258.6L127.3,258.6z"/>
			</g>
			<g>
				<path fill="#21B3D6" d="M145.6,244.4c0.4,0.8,1,1.5,1.6,2.1c0.6,0.6,1.4,1.1,2.2,1.4c1.6,0.7,3.4,0.9,5.1,0.6h0l1.2-0.1l-1,0.6
					c-0.8,0.5-1.7,1.2-2.2,2c-0.6,0.8-0.9,1.9-0.5,2.8c0.3,1,1.2,1.6,2.2,1.8c1,0.2,2,0.2,3.1,0.2c0.5,0,1.1,0,1.6,0.1
					c0.3,0.1,0.6,0.2,0.7,0.5c0,0.1,0.1,0.1,0.1,0.2l0,0.2c0,0.1,0,0.3,0,0.5c-0.2,0.7-0.8,0.9-1.3,1.1c-0.5,0.2-1,0.3-1.6,0.4
					c-1,0.2-2.1,0.3-3.1,0.5c-1,0.2-2,0.4-2.9,0.9c-0.1,0.1-0.2,0.1-0.3,0.2c0,0-0.1,0.1-0.1,0.1l-0.1,0.1c-0.2,0.2-0.4,0.4-0.5,0.6
					c-0.3,0.4-0.5,0.8-0.7,1.3c-0.3,0.9-0.4,1.9-0.1,2.9c0.3,1,0.7,1.9,1.5,2.5c0.7,0.6,1.7,1,2.7,1.2c2,0.3,4.2-0.2,5.8-1.4
					c0.8-0.6,1.4-1.5,1.7-2.4c0.2-1,0.5-2,0.6-3.1h0.2c-0.1,1.1-0.3,2.1-0.5,3.2c-0.3,1.1-0.9,2-1.8,2.7c-1.7,1.4-4,1.9-6.1,1.6
					c-1.1-0.1-2.2-0.5-3-1.3c-0.9-0.7-1.4-1.8-1.7-2.8c-0.3-1.1-0.3-2.2,0.1-3.3c0.2-0.5,0.5-1,0.8-1.5c0.2-0.2,0.4-0.4,0.6-0.6
					l0.1-0.1c0.1-0.1,0.1-0.1,0.2-0.2c0.1-0.1,0.2-0.2,0.4-0.3c1-0.6,2.1-0.8,3.1-1c1.1-0.2,2.1-0.3,3.1-0.4c0.5-0.1,1-0.2,1.5-0.3
					c0.5-0.1,1-0.4,1.1-0.8c0-0.1,0-0.2,0-0.3l0-0.2l-0.1-0.1c-0.1-0.2-0.3-0.3-0.5-0.4c-0.5-0.1-1-0.1-1.5-0.1
					c-1,0-2.1,0.1-3.2-0.2c-0.5-0.1-1.1-0.3-1.5-0.7c-0.4-0.3-0.8-0.8-1-1.3c-0.5-1.1-0.1-2.3,0.5-3.2c0.6-0.9,1.4-1.7,2.3-2.3
					l0.2,0.5h0c-1.8,0.2-3.7,0-5.4-0.9c-0.8-0.4-1.6-1-2.2-1.6c-0.6-0.6-1.2-1.4-1.6-2.2L145.6,244.4z"/>
			</g>
			<g>
				<path fill="#21B3D6" d="M140.6,252.9c0,0,0-0.7,0.4-1.6c0.1-0.2,0.2-0.5,0.3-0.7c0.1-0.2,0.3-0.5,0.5-0.7
					c0.2-0.2,0.4-0.5,0.6-0.7c0.2-0.2,0.5-0.4,0.7-0.6c0.3-0.2,0.5-0.4,0.8-0.5c0.3-0.1,0.6-0.3,0.9-0.4c0.3-0.1,0.6-0.2,0.8-0.3
					c0.3-0.1,0.5-0.1,0.8-0.1c0.5-0.1,0.9-0.1,1.1-0.1c0.3,0,0.4,0,0.4,0l0,0.3c0,0-0.2,0-0.4,0.1c-0.3,0.1-0.6,0.1-1.1,0.2
					c-0.2,0.1-0.5,0.1-0.7,0.2c-0.2,0.1-0.5,0.2-0.8,0.3c-0.3,0.1-0.5,0.2-0.8,0.4c-0.2,0.2-0.5,0.3-0.7,0.5
					c-0.2,0.2-0.5,0.4-0.7,0.6c-0.2,0.2-0.4,0.4-0.6,0.6c-0.3,0.4-0.6,0.9-0.8,1.3c-0.4,0.8-0.5,1.4-0.5,1.4L140.6,252.9z"/>
			</g>
			<g>
				<path fill="#21B3D6" d="M155.6,243.6c0.6,0.1,1.3,0.1,1.9,0.1c0.3,0,0.6,0,1,0l1-0.1c0.7,0,1.4,0.2,2.1,0.5
					c0.6,0.4,1.1,1,1.3,1.7c0.2,0.8-0.1,1.5-0.4,2.1c-0.3,0.6-0.7,1.2-1.2,1.7c-0.2,0.2-0.5,0.5-0.7,0.7c-0.3,0.2-0.5,0.4-0.8,0.6
					c-0.6,0.3-1.3,0.5-1.9,0.6l0,0l0-0.1c0.5-0.2,1.1-0.3,1.6-0.3c0.5,0,1.1,0,1.6,0.2c1.1,0.3,2.1,1,2.8,1.8
					c0.4,0.4,0.7,0.9,0.9,1.4c0.3,0.5,0.5,1,0.6,1.6c0.1,0.6,0.1,1.2,0,1.7c-0.1,0.6-0.3,1.1-0.7,1.6c-0.6,1-1.5,1.7-2.4,2.3
					c-0.9,0.6-1.9,1.1-2.8,1.6c-0.5,0.2-1,0.4-1.5,0.6c-0.5,0.1-1,0.3-1.6,0.4c-1.1,0.2-2.1,0.3-3.2,0.2l0-0.1
					c1.1,0,2.1-0.2,3.1-0.5c0.5-0.1,1-0.3,1.5-0.5c0.5-0.2,1-0.4,1.4-0.6c0.9-0.5,1.9-1,2.7-1.6c0.8-0.6,1.6-1.3,2.1-2.2
					c0.5-0.8,0.8-1.8,0.6-2.8c-0.1-0.5-0.3-0.9-0.5-1.4c-0.2-0.4-0.5-0.9-0.8-1.3c-0.3-0.4-0.7-0.7-1.1-1c-0.4-0.3-0.9-0.5-1.3-0.7
					c-1-0.3-2-0.4-3.1-0.3l0-0.1h0c0.6-0.2,1.2-0.4,1.7-0.8c0.3-0.2,0.5-0.4,0.7-0.6c0.2-0.3,0.4-0.5,0.6-0.7c0.4-0.5,0.8-1,1-1.6
					c0.2-0.6,0.4-1.2,0.3-1.7c-0.1-0.6-0.5-1-1-1.3c-0.5-0.3-1.1-0.5-1.7-0.5l-1,0c-0.3,0-0.7,0-1,0c-0.7-0.1-1.3-0.2-2-0.4
					L155.6,243.6z"/>
			</g>
			<g>
				<path fill="#21B3D6" d="M117.4,248.9c-0.1-0.4-0.5-0.7-0.8-0.9c-0.4-0.2-0.8-0.2-1.3-0.2l0-0.3c0.5-0.1,1.1-0.1,1.6-0.1
					c0.3,0,0.6,0,0.8,0c0.1,0,0.3,0,0.4,0.1c0.1,0,0.2,0,0.2,0.1c0.1,0,0.2,0.1,0.3,0.1l-0.4,0.5c-0.1-0.1-0.4-0.2-0.6-0.2
					c-0.2-0.1-0.5-0.1-0.8-0.1c-0.5-0.1-1.1-0.1-1.6-0.1l0-0.3c0.5,0,1,0.1,1.4,0.3c0.4,0.2,0.8,0.6,0.9,1.1L117.4,248.9z"/>
			</g>
			<g>
				<path fill="#21B3D6" d="M114.7,255.2c0,0,1,0.1,1.9,0.5c0.2,0.1,0.5,0.2,0.7,0.4c0.2,0.1,0.4,0.3,0.5,0.4
					c0.1,0.2,0.2,0.3,0.3,0.4c0.1,0.1,0.1,0.2,0.1,0.2l-0.4,0.2c0,0,0,0-0.1-0.1c0-0.1-0.1-0.2-0.2-0.3c-0.1-0.1-0.3-0.3-0.4-0.4
					c-0.2-0.1-0.4-0.2-0.6-0.3c-0.9-0.4-1.8-0.6-1.8-0.6L114.7,255.2z"/>
			</g>
			<path fill="none" stroke="#21B3D6" stroke-width="0.3518" stroke-miterlimit="10" d="M116.1,243.8c0,0,1,0.1,1.3-0.3"/>
			<g>
				<path fill="#21B3D6" d="M120.7,244.7c0,0-0.1,0.1-0.1,0.3c0,0.2,0,0.5,0,0.8c0.1,0.3,0.1,0.5,0.2,0.7c0.1,0.2,0.2,0.3,0.2,0.3
					l-0.3,0.2c0,0,0-0.1-0.1-0.4c-0.1-0.2-0.1-0.5-0.1-0.8c0-0.3,0-0.6,0.1-0.8C120.6,244.8,120.7,244.7,120.7,244.7z"/>
			</g>
			<g>
				<path fill="#21B3D6" d="M125.4,248.2c0,0,0.1-0.1,0.3-0.3c0.2-0.2,0.5-0.4,0.9-0.5c0.2-0.1,0.4-0.2,0.7-0.3
					c0.2-0.1,0.5-0.1,0.8-0.2c0.3-0.1,0.6-0.1,0.8-0.1c0.3,0,0.6,0,0.9,0c0.3,0,0.6,0,0.9,0.1c0.3,0.1,0.5,0.1,0.8,0.2
					c0.3,0.1,0.5,0.2,0.7,0.3c0.2,0.1,0.4,0.2,0.6,0.4c0.1,0.2,0.3,0.3,0.4,0.4c0.1,0.1,0.2,0.3,0.2,0.4c0.1,0.2,0.1,0.4,0.1,0.4
					l-0.1,0c0,0,0-0.1-0.1-0.3c0-0.1-0.1-0.2-0.2-0.4c-0.1-0.1-0.3-0.2-0.4-0.4c-0.2-0.1-0.4-0.2-0.6-0.3c-0.2-0.1-0.5-0.1-0.7-0.2
					c-0.2-0.1-0.5-0.1-0.8-0.1c-0.3-0.1-0.5,0-0.8,0c-0.3,0-0.5,0-0.8,0c-0.3,0.1-0.5,0.1-0.8,0.1c-0.2,0.1-0.5,0.1-0.7,0.2
					c-0.2,0.1-0.4,0.2-0.6,0.3c-0.3,0.2-0.6,0.4-0.8,0.5c-0.2,0.1-0.3,0.2-0.3,0.2L125.4,248.2z"/>
			</g>
			<g>
				<path fill="#21B3D6" d="M133.5,246.1c0,0,0,0.5-0.2,1c-0.1,0.2-0.2,0.5-0.3,0.6c-0.1,0.2-0.2,0.3-0.2,0.3l-0.2-0.3
					c0,0,0.1-0.1,0.2-0.2c0.1-0.1,0.3-0.3,0.4-0.5C133.4,246.6,133.5,246.1,133.5,246.1z"/>
			</g>
			<g>
				<path fill="#21B3D6" d="M142.1,262.8c0,0,0.3,0.3,0.9,0.6c0.1,0.1,0.3,0.2,0.5,0.2c0.2,0.1,0.4,0.1,0.6,0.2
					c0.2,0.1,0.4,0.1,0.6,0.1c0.2,0,0.4,0,0.7,0c0.9,0,1.8,0.3,2.5,0.6c0.3,0.2,0.6,0.3,0.7,0.5c0.1,0.2,0.1,0.3,0.1,0.3l0,0
					c0,0,0-0.1-0.2-0.2c-0.1-0.1-0.4-0.3-0.7-0.4c-0.6-0.2-1.5-0.4-2.4-0.4c-0.2,0-0.4,0-0.7,0c-0.2,0-0.5,0-0.7-0.1
					c-0.4-0.1-0.8-0.3-1.1-0.5c-0.6-0.4-0.9-0.8-0.9-0.8L142.1,262.8z"/>
			</g>
			<g>
				<path fill="#21B3D6" d="M144.2,269.8c0.1-0.3,0.3-0.5,0.5-0.8c0.1-0.1,0.2-0.2,0.3-0.4c0.1-0.1,0.3-0.2,0.5-0.2
					c0,0,0.1,0,0.1,0.1l0.1,0.1c0,0.1,0.1,0.1,0.1,0.2l0.2,0.4l0.3,0.8c0.2,0.5,0.5,1.1,0.7,1.6c0.1,0.3,0.3,0.5,0.4,0.7
					c0.1,0.1,0.1,0.3,0.2,0.3l0.3,0.3l0,0l0.7,0.7l-0.9-0.2c-0.5-0.1-1-0.3-1.5-0.4c-0.5-0.1-1-0.2-1.5-0.2c-0.2,0-0.5,0-0.7,0
					l-0.4,0.1c-0.1,0-0.2,0.1-0.3,0.1c-0.2,0.1-0.5,0.2-0.7,0.3c-0.2,0.1-0.5,0.2-0.8,0.2l-0.1-0.1c0.2-0.2,0.4-0.4,0.6-0.5
					c0.2-0.1,0.4-0.3,0.7-0.4c0.1-0.1,0.3-0.1,0.4-0.2l0.4-0.1c0.3-0.1,0.6,0,0.8-0.1c1.1,0,2.2,0.3,3.2,0.7l-0.2,0.5l0,0l-0.3-0.4
					c-0.1-0.1-0.2-0.3-0.3-0.4c-0.2-0.3-0.3-0.5-0.4-0.8c-0.2-0.6-0.4-1.1-0.6-1.7l-0.3-0.8l-0.1-0.4c0-0.1-0.1-0.1-0.1-0.2
					l-0.1-0.1c0,0,0,0,0,0c-0.1,0-0.2,0-0.3,0.1c-0.1,0.1-0.2,0.2-0.3,0.3c-0.2,0.2-0.3,0.5-0.5,0.7L144.2,269.8z"/>
			</g>
			<g>
				<path fill="#21B3D6" d="M150.4,268.2c0,0,0.2,0.8,0.8,1.8c0.3,0.5,0.7,1.1,1.1,1.7c0.2,0.3,0.5,0.6,0.8,0.8
					c0.3,0.3,0.6,0.5,0.9,0.9c0.5,0.7,0.6,1.7,0.5,2.4c-0.1,0.8-0.4,1.5-0.7,2c-0.3,0.6-0.6,1-0.9,1.2c-0.3,0.3-0.6,0.4-0.6,0.4
					l-0.2-0.7c0,0,0.1,0,0.3-0.2c0.2-0.2,0.5-0.6,0.8-1c0.3-0.5,0.6-1.1,0.7-1.8c0.1-0.7,0.1-1.5-0.3-2.1c-0.2-0.3-0.5-0.6-0.8-0.9
					c-0.3-0.3-0.5-0.6-0.8-0.9c-0.5-0.6-0.8-1.2-1.1-1.8c-0.5-1.1-0.7-1.9-0.7-1.9L150.4,268.2z"/>
			</g>
			<g>
				<path fill="#21B3D6" d="M160.9,265.7c0,0,0.1,0.2,0.2,0.6c0.1,0.4,0.3,0.9,0.4,1.6c0.1,0.3,0.1,0.7,0.1,1.1c0,0.4,0,0.8-0.1,1.2
					c-0.1,0.4-0.2,0.9-0.3,1.3c-0.1,0.4-0.4,0.8-0.6,1.2c-0.3,0.4-0.6,0.7-0.9,1c-0.4,0.3-0.7,0.6-1.1,0.8c-0.4,0.2-0.7,0.4-1.1,0.6
					c-0.4,0.1-0.7,0.3-1,0.4c-0.6,0.3-1.2,0.3-1.6,0.4c-0.4,0.1-0.6,0.1-0.6,0.1l-0.2-1c0,0,0.2,0,0.6-0.1c0.4-0.1,0.9-0.1,1.5-0.3
					c0.3-0.1,0.6-0.2,1-0.3c0.3-0.1,0.7-0.3,1-0.5c0.4-0.2,0.7-0.4,1-0.7c0.3-0.3,0.6-0.6,0.9-0.9c0.2-0.3,0.5-0.7,0.6-1.1
					c0.2-0.4,0.3-0.8,0.4-1.2c0.1-0.4,0.1-0.8,0.1-1.1c0-0.4,0-0.7,0-1c-0.1-0.6-0.2-1.2-0.3-1.5c-0.1-0.4-0.2-0.6-0.2-0.6
					L160.9,265.7z"/>
			</g>
			<g>
				<path fill="#21B3D6" d="M158.3,274.1c0,0,0.1,0.1,0.4,0.2c0.3,0.1,0.6,0.3,1.1,0.4c0.3,0,0.5,0.1,0.8,0.1c0.3,0,0.6,0,0.9-0.1
					c0.3-0.1,0.7-0.1,1-0.3l0.5-0.2l0.5-0.3c0.3-0.2,0.6-0.4,0.9-0.6c0.3-0.2,0.5-0.4,0.8-0.7c0.5-0.4,0.9-1,1.2-1.4
					c0.2-0.2,0.3-0.4,0.4-0.6c0.1-0.2,0.2-0.3,0.3-0.5c0.2-0.3,0.3-0.4,0.3-0.4l0.1,0c0,0-0.1,0.2-0.3,0.4c-0.1,0.1-0.2,0.3-0.3,0.5
					c-0.1,0.2-0.2,0.4-0.4,0.6c-0.3,0.4-0.7,1-1.2,1.5c-0.2,0.3-0.5,0.5-0.8,0.7c-0.3,0.2-0.6,0.5-0.9,0.7l-0.5,0.3l-0.5,0.2
					c-0.3,0.2-0.7,0.2-1,0.4c-0.4,0.1-0.7,0.1-1,0.1c-0.3,0-0.6,0-0.9-0.1c-0.6-0.1-1-0.3-1.3-0.4c-0.3-0.1-0.5-0.3-0.5-0.3
					L158.3,274.1z"/>
			</g>
			<g>
				<path fill="#21B3D6" d="M156.4,275.3c0,0,0,0.1,0.1,0.3c0.1,0.2,0.2,0.4,0.4,0.7c0.1,0.1,0.2,0.3,0.3,0.4
					c0.1,0.2,0.3,0.3,0.4,0.4c0.1,0.1,0.3,0.3,0.5,0.4c0.2,0.2,0.3,0.3,0.5,0.5c0.2,0.1,0.3,0.4,0.4,0.6c0.1,0.2,0.2,0.4,0.3,0.6
					c0.2,0.4,0.3,0.8,0.3,1.2c0.1,0.4,0.1,0.7,0.1,0.9c0,0.2,0,0.3,0,0.3l-0.7,0c0,0,0-0.1,0-0.3c0-0.2,0-0.5-0.1-0.8
					c0-0.3-0.1-0.7-0.2-1.1c-0.1-0.2-0.1-0.4-0.2-0.6c-0.1-0.2-0.2-0.4-0.3-0.5c-0.1-0.2-0.3-0.3-0.4-0.5c-0.2-0.2-0.3-0.3-0.5-0.5
					c-0.1-0.2-0.3-0.3-0.4-0.5c-0.1-0.2-0.2-0.3-0.3-0.5c-0.2-0.3-0.3-0.6-0.4-0.8c-0.1-0.2-0.1-0.3-0.1-0.3L156.4,275.3z"/>
			</g>
			<g>
				<path fill="#21B3D6" d="M163.1,278.5c0,0,0.1-0.2,0.2-0.6c0.1-0.2,0.1-0.4,0.1-0.6c0-0.2,0-0.5,0-0.7c0-0.2,0-0.5-0.1-0.7
					c-0.1-0.2-0.1-0.4-0.2-0.6c-0.2-0.3-0.3-0.5-0.3-0.5l0.3-0.2c0,0,0.1,0.2,0.3,0.6c0.1,0.2,0.1,0.4,0.2,0.6c0.1,0.2,0,0.5,0,0.8
					c0,0.3-0.1,0.5-0.1,0.7c-0.1,0.2-0.1,0.4-0.2,0.6C163.3,278.3,163.1,278.5,163.1,278.5z"/>
			</g>
			<g>
				<path fill="#21B3D6" d="M161.1,270.2c0,0,0.4,0,0.9-0.1c0.3,0,0.6-0.1,0.9-0.2c0.2,0,0.3-0.1,0.5-0.2c0.2-0.1,0.3-0.1,0.5-0.2
					c0.3-0.2,0.7-0.3,0.9-0.5c0.3-0.2,0.5-0.4,0.7-0.6c0.4-0.4,0.6-0.6,0.6-0.6l0.3,0.2c0,0-0.3,0.3-0.7,0.6
					c-0.2,0.2-0.5,0.3-0.8,0.5c-0.3,0.2-0.6,0.3-1,0.5c-0.2,0.1-0.3,0.1-0.5,0.2c-0.2,0-0.3,0.1-0.5,0.1c-0.3,0.1-0.6,0.1-0.9,0.1
					C161.5,270.2,161.1,270.2,161.1,270.2z"/>
			</g>
			<g>
				<path fill="#21B3D6" d="M160.9,264.6c0,0,0.3-0.2,0.7-0.4c0.5-0.2,1.1-0.4,1.7-0.5c0.3-0.1,0.6-0.1,1-0.2c0.3,0,0.6-0.1,0.9,0
					c0.5,0,0.8,0,0.8,0l-0.1,0.4c0,0-0.3,0-0.8-0.1c-0.2,0-0.5,0-0.8,0c-0.3,0-0.6,0-0.9,0.1c-0.6,0.1-1.3,0.3-1.7,0.4
					C161.2,264.4,160.9,264.6,160.9,264.6z"/>
			</g>
			<g>
				<path fill="#21B3D6" d="M162.4,260.9c0,0,0.2,0,0.4,0.1c0.2,0.1,0.6,0.1,0.9,0.2c0.3,0.1,0.7,0.2,0.9,0.3
					c0.1,0.1,0.2,0.2,0.3,0.3c0.1,0.1,0.3,0,0.3,0l-0.8,0.4c0,0,0.2-0.1,0.2-0.1c0,0-0.1-0.1-0.2-0.1c-0.2-0.1-0.4-0.2-0.7-0.2
					c-0.3,0-0.6,0-0.8,0c-0.2,0-0.4,0.1-0.4,0.1L162.4,260.9z"/>
			</g>
			<g>
				<path fill="#21B3D6" d="M161.2,249.1c0,0.5,0,0.3,0,0.3c0,0,0,0,0,0c0,0,0.1,0,0.1,0c0.1,0,0.3,0,0.4,0c0.4,0,0.8-0.1,1.3-0.2
					c0.2-0.1,0.4-0.2,0.6-0.3c0.2-0.1,0.3-0.2,0.4-0.4c0.1-0.1,0.2-0.2,0.2-0.3c0-0.1,0-0.1,0-0.1l0.6,0.3c0,0-0.1,0.1-0.1,0.2
					c-0.1,0.1-0.2,0.2-0.4,0.3c-0.2,0.1-0.4,0.2-0.6,0.3c-0.2,0.1-0.5,0.2-0.7,0.2c-0.5,0.1-1,0.1-1.4,0.1c-0.2,0-0.3,0-0.4,0
					c-0.1,0-0.1,0-0.1,0c0,0,0,0,0,0c0,0,0-0.2,0,0.3L161.2,249.1z"/>
			</g>
			<path fill="none" stroke="#21B3D6" stroke-width="0.3518" stroke-miterlimit="10" d="M164.3,238.9c0,0,1.3-0.5,1.8,0.8"/>
			<g>
				<path fill="#21B3D6" d="M161.1,242c0,0,0.2,0,0.5,0.2c0.3,0.1,0.6,0.4,0.7,0.9c0.1,0.4-0.1,0.9-0.3,1.2
					c-0.1,0.1-0.2,0.2-0.2,0.3c-0.1,0.1-0.1,0.1-0.1,0.1l-0.3-0.2c0,0,0,0,0.1-0.1c0-0.1,0.1-0.2,0.2-0.3c0.2-0.2,0.3-0.6,0.3-1
					c0-0.4-0.3-0.7-0.6-0.8C161.2,242.1,161.1,242.1,161.1,242L161.1,242z"/>
			</g>
			<g>
				<path fill="#21B3D6" d="M159.5,280.3c0,0,0.2,0.2,0.5,0.5c0.3,0.3,0.7,0.6,1.2,0.7c0.2,0.1,0.5,0.1,0.7,0.1
					c0.2,0,0.4-0.1,0.6-0.2c0.3-0.2,0.5-0.4,0.5-0.4l0.2,0.2c0,0-0.2,0.2-0.6,0.4c-0.2,0.1-0.4,0.2-0.7,0.2c-0.3,0-0.6,0-0.8-0.1
					c-0.5-0.2-0.9-0.6-1.2-0.8C159.6,280.6,159.5,280.3,159.5,280.3L159.5,280.3z"/>
			</g>
			<g>
				<path fill="#21B3D6" d="M133.1,248.6c0,0,0.2,0.1,0.2,0c0.1-0.1,0.2-0.2,0.3-0.3c0.1-0.1,0.3-0.2,0.4-0.4
					c0.2-0.2,0.4-0.3,0.6-0.5c0.2-0.2,0.5-0.3,0.8-0.5c0.3-0.2,0.6-0.3,0.9-0.4c0.3-0.1,0.7-0.2,1.1-0.3l0.6-0.1c0.2,0,0.4,0,0.6,0
					c0.4,0,0.8,0,1.1,0c0.4,0.1,0.7,0.1,1.1,0.2c0.3,0.1,0.7,0.2,1,0.3c0.3,0.1,0.6,0.2,0.9,0.3c0.5,0.2,0.9,0.5,1.2,0.7
					c0.1,0.1,0.2,0.2,0.3,0.3c0.1,0.1,0.1,0.1,0.1,0.1l-0.4,0.2c0,0-0.1-0.1-0.3-0.3c-0.2-0.2-0.6-0.4-1.1-0.6
					c-0.2-0.1-0.5-0.2-0.8-0.3c-0.3-0.1-0.6-0.2-0.9-0.2c-0.3-0.1-0.7-0.1-1.1-0.2c-0.4-0.1-0.7,0-1.1-0.1c-0.2,0-0.4,0-0.5,0
					l-0.5,0.1c-0.3,0-0.7,0.1-1,0.2c-0.3,0.1-0.6,0.2-0.9,0.4c-0.3,0.1-0.5,0.3-0.8,0.4c-0.2,0.2-0.4,0.3-0.6,0.4
					c-0.2,0.1-0.3,0.3-0.4,0.4c-0.1,0.1-0.2,0.2-0.3,0.3c-0.1,0,0,0.2,0,0.2L133.1,248.6z"/>
			</g>
			<g>
				<path fill="#21B3D6" d="M136,249.8c0,0,0.3-0.1,0.9-0.1c0.3,0,0.6,0,0.9,0.1c0.2,0,0.3,0,0.5,0.1c0.2,0.1,0.3,0.1,0.5,0.2
					c0.3,0.1,0.7,0.3,1,0.4c0.3,0.1,0.6,0.3,0.8,0.4c0.4,0.3,0.8,0.5,0.8,0.5l-0.2,0.3c0,0-0.3-0.2-0.7-0.5
					c-0.2-0.2-0.5-0.3-0.8-0.5c-0.3-0.1-0.6-0.3-0.9-0.4c-0.2-0.1-0.3-0.1-0.5-0.2c-0.2-0.1-0.3-0.1-0.5-0.1
					c-0.3-0.1-0.6-0.1-0.9-0.1C136.3,249.8,136,249.9,136,249.8L136,249.8z"/>
			</g>
			<g>
				<path fill="#21B3D6" d="M146,252.1c0,0,0.8,1.1,1.8,2.1c0.2,0.2,0.5,0.5,0.8,0.7c0.3,0.2,0.5,0.4,0.7,0.5
					c0.4,0.2,0.7,0.4,0.7,0.4l-0.1,0.3c0,0-0.3-0.2-0.8-0.4c-0.2-0.2-0.4-0.4-0.7-0.6c-0.2-0.2-0.5-0.5-0.7-0.7
					C146.8,253.2,146,252.1,146,252.1z"/>
			</g>
			<g>
				<path fill="#21B3D6" d="M122.1,267.3c0,0,0.3,0.9,1.2,2c0.4,0.6,1,1.2,1.6,1.7c0.3,0.3,0.7,0.5,1.1,0.7c0.4,0.2,0.8,0.4,1.3,0.5
					c0.4,0.2,0.9,0.2,1.3,0.3c0.5,0.1,0.9,0.2,1.3,0.3c0.4,0.1,0.9,0.1,1.2,0.2c0.4,0,0.8,0.1,1.1,0.1c0.3,0,0.7,0,1,0
					c0.3,0,0.5,0,0.7,0c0.4,0,0.6,0,0.6,0l0,0.2c0,0-0.2,0-0.6,0.1c-0.4,0-1,0.1-1.7,0.1c-0.4,0-0.7,0-1.2-0.1c-0.4,0-0.9,0-1.3-0.1
					c-0.4-0.1-0.9-0.2-1.3-0.2c-0.4-0.1-0.9-0.1-1.4-0.3c-0.5-0.1-0.9-0.3-1.3-0.6c-0.4-0.2-0.8-0.5-1.2-0.8
					c-0.7-0.6-1.3-1.2-1.7-1.8c-0.4-0.6-0.7-1.1-0.8-1.5c-0.2-0.4-0.2-0.6-0.2-0.6L122.1,267.3z"/>
			</g>
			<g>
				<path fill="#21B3D6" d="M132.5,270c0,0,0.1,0.1,0.2,0.2c0.1,0.2,0.4,0.4,0.6,0.7c0.1,0.2,0.2,0.3,0.4,0.5
					c0.1,0.2,0.2,0.4,0.4,0.6c0.2,0.4,0.4,0.9,0.7,1.3c0.5,0.8,1.2,1.6,1.6,2.2c0.2,0.3,0.5,0.5,0.6,0.6c0.1,0.1,0.1,0.1,0.1,0.1
					c0,0-0.1,0-0.1,0l-0.1,0.7c0,0-0.1,0-0.2-0.1c-0.1-0.1-0.2-0.1-0.3-0.2c-0.2-0.2-0.4-0.4-0.6-0.7c-0.5-0.6-1-1.5-1.5-2.4
					c-0.3-0.4-0.4-1-0.6-1.4c-0.1-0.2-0.2-0.4-0.3-0.6c-0.1-0.2-0.2-0.4-0.3-0.5c-0.2-0.3-0.4-0.6-0.5-0.7
					C132.6,270.1,132.5,270,132.5,270z"/>
			</g>
			<g>
				<path fill="#21B3D6" d="M120.9,268.2c0,0,0.3,0.7,0.6,1.8c0.3,1.1,0.7,2.6,0.4,4.2c-0.1,0.4-0.2,0.8-0.4,1.1l-0.2,0.2
					c0,0,0,0.1-0.1,0.1l-0.1,0.1c-0.1,0.1-0.3,0.2-0.4,0.4c-0.2,0.3-0.6,0.4-0.9,0.6c-0.3,0.2-0.6,0.3-0.9,0.4
					c-0.3,0.1-0.5,0.2-0.8,0.2c-0.2,0-0.4,0.1-0.6,0.1c-0.3,0-0.5,0-0.5,0l0-0.3c0,0,0.2,0,0.5,0c0.2,0,0.3-0.1,0.6-0.1
					c0.2,0,0.4-0.1,0.7-0.2c0.2-0.1,0.5-0.2,0.8-0.4c0.2-0.2,0.5-0.3,0.8-0.6c0.1-0.1,0.3-0.2,0.4-0.4l0.1-0.1l0.1-0.1l0.2-0.2
					c0.2-0.3,0.3-0.6,0.4-1c0.3-1.4,0-2.9-0.2-4c-0.2-1.1-0.5-1.8-0.5-1.8L120.9,268.2z"/>
			</g>
			<g>
				<path fill="#21B3D6" d="M128,272.5c0,0,0.3,0.3,0.7,0.9c0.5,0.6,1.1,1.5,1.7,2.7c0.3,0.6,0.6,1.2,0.8,2c0.2,0.7,0.4,1.5,0.1,2.4
					c-0.1,0.2-0.2,0.4-0.3,0.6c-0.1,0.2-0.3,0.3-0.4,0.5c-0.4,0.3-0.7,0.5-1,0.8c-0.8,0.4-1.7,0.8-2.6,0.7c-0.9-0.1-1.8-0.4-2.5-0.5
					c-0.8-0.1-1.7,0-2.5-0.1c-1.6,0-3.2-0.2-4.5-0.6c-0.6-0.2-1.2-0.4-1.7-0.6c-0.3-0.1-0.5-0.2-0.7-0.4c-0.2-0.1-0.4-0.2-0.5-0.4
					c-0.3-0.2-0.5-0.5-0.7-0.6c-0.1-0.2-0.2-0.2-0.2-0.2l0.6-0.4c0,0,0.1,0.1,0.2,0.2c0.1,0.1,0.3,0.4,0.6,0.6
					c0.1,0.1,0.3,0.2,0.5,0.4c0.2,0.1,0.4,0.2,0.6,0.4c0.4,0.2,1,0.4,1.6,0.6c1.2,0.4,2.7,0.6,4.3,0.6c0.8,0.1,1.6,0,2.5,0.1
					c0.9,0.2,1.7,0.5,2.5,0.6c0.2,0,0.4,0,0.6,0l0.6-0.1c0.4-0.1,0.8-0.3,1.1-0.4c0.3-0.2,0.7-0.5,1-0.7c0.1-0.1,0.3-0.3,0.4-0.4
					l0.3-0.5c0.2-0.7,0.1-1.5-0.1-2.2c-0.2-0.7-0.5-1.3-0.8-1.9c-0.6-1.2-1.2-2-1.6-2.7c-0.4-0.6-0.7-0.9-0.7-0.9L128,272.5z"/>
			</g>
			<g>
				<path fill="#21B3D6" d="M121.9,271.6c0,0,0.2,0.8,0.8,2c0.6,1.1,1.6,2.5,3,3.4l0.3,0.2l0.1,0.1l0.1,0.1c0,0,0,0,0.1,0.1
					c0,0,0,0,0,0c0,0,0,0.2-0.1,0.2c0,0-0.1,0-0.1,0c0,0-0.1,0-0.1,0c-0.2-0.1-0.4-0.1-0.6-0.2c-0.4-0.1-0.8-0.3-1.2-0.4
					c-0.8-0.2-1.5-0.5-2.1-0.6c-0.6-0.1-1.1-0.2-1.5-0.1c-0.3,0.1-0.5,0.2-0.5,0.2l-0.1-0.2c0,0,0.2-0.2,0.6-0.3
					c0.4-0.1,0.9-0.1,1.6,0c0.6,0.1,1.4,0.3,2.1,0.5c0.4,0.1,0.8,0.3,1.2,0.4c0.2,0.1,0.4,0.1,0.6,0.2c0,0,0,0,0,0c0,0,0,0-0.1,0
					c-0.1,0-0.1,0.2-0.1,0.2c0,0,0,0,0,0l0,0l0,0l-0.1-0.1l-0.3-0.2c-0.4-0.2-0.7-0.5-1-0.8c-0.3-0.3-0.6-0.6-0.8-0.9
					c-0.3-0.3-0.5-0.7-0.6-1c-0.2-0.3-0.3-0.6-0.5-0.9C121.9,272.5,121.8,271.6,121.9,271.6L121.9,271.6z"/>
			</g>
			<path fill="none" stroke="#21B3D6" stroke-width="0.3518" stroke-miterlimit="10" d="M131.3,278.8c0,0,1,0.5,2.9,0"/>
		</g>
		<path id="intestinos_2_" class="bodyPart" fill="#21B3D6" stroke="#21B3D6" stroke-width="1.891900e-02" stroke-miterlimit="10" d="M115.9,277.9c0,0-4.6,7.4-12.2,2.1
			c-1.2-1.8-1.1-1.4-1.8-2.1c-0.6-0.7-2.9-5.4,0-8.5c-0.5-0.4-2.3-2.5-0.6-5.4c-0.4-1.1-1.3-2.7,0.6-5.9c-0.4-0.9-2-5,1.3-7.2
			c-0.4-0.6-2.9-4.7,0.6-7.7c-0.4-0.7-1.3-3.9-0.8-5.3c-0.4-0.4-2.3-5,1.1-7.2c0.4-0.7,0.9-4,6.1-4.7c3.3,0.4,5.2,1.8,5.7,3.3
			c1.1,0.3,2.2,0.3,4.4,1.9c1,0.3,4.7,0.5,6.2,2.5c1.1,0.2,4.7-0.1,5.5,1.8c1-0.2,4.6-0.4,6.7,1.1c0.8-0.2,2.5-1.1,4.4-0.5
			c1.2-0.4,3.4-1.7,5.8-1.1c0.5-0.4,2.9-2.2,5.2-1.6c0.4-0.7,1.4-3.2,6.5-3.3c0.5-0.7,1.4-4.5,4.8-4.9c0.4-0.6,3.4-9.8,9.7-5.6
			c1.2,0.7,6.5,3.7,2,10.3c0.1,0.7,0,3.6-1.3,4.7c0.2,0.7,0.3,2.8-1.1,4.3c0.2,0.9,0.3,3.7-0.8,4.7c0.6,1.1,0.8,2.7,0.1,3.6
			c0.6,1.1,1.3,4,0.6,4.7c0.7,0.7,1,3.2,0.4,4.3c1,0.8,1.9,4,1.1,6.2c0.8,0.8,3.3,3.7,1.3,7.8c0.3,1.1,0.9,6-0.7,7.4
			c0.2,1.1,1,5.9-4.2,9.2c-0.6,1.4-2.3,4.2-7.6,3.8c-0.8,1.1-4.4,4.1-10.1-0.4c-0.4,0.7-4.7,2-7.7-1.8c-1.1-0.3-2.2-0.4-2.2-0.4
			s-0.3,1.8-0.7,2.7c0.7,1.5,2.8,6.5-0.3,10c0.4,1.8,0.5,5.6-1.7,8.7h-3.3c0,0-0.3-2.2-2.2-3.9c-1.4-2.7-3-4.3-2.2-11.1
			c-1.2-1.8-5.7-10.8,0.6-17.8c6.1-3.3,11.1-2.2,15,2c2.3-0.3,4.9,1.5,6.1,3.4c0,0,1.9-2.4,5.5,0.2c0.4-0.7,1.1-2.2,3.3-2.6
			c0.1-0.6,0.5-2.9,1.8-2.9c-0.2-0.5-1.6-3.7,0.4-6.6c-0.7-0.7-2.2-2.1-1.4-6.1c-0.6-0.5-2.5-2-1.2-5.9c-0.4-0.5-2-1.7-0.9-5.8
			c-0.4-1-0.4-3.6,0.6-4.7c0-0.7-0.7-2.6,0.8-4.7c-0.1-0.3-0.5-2.1,0.6-3.2c0-0.4,0.1-2.2,0.1-2.2s-1.8,5.1-7.2,5.1
			c-0.7,0.7-2.2,2.6-5.5,1.3c-0.5,0.4-3.1,2.2-7.4,1.1c-0.8,0.8-2.6,2.5-6.6,0.7c-0.4,0.5-3.8,2.2-7.3,0c-0.8,0.3-4.8,2-7.3-1.7
			c-0.7,0.4-4.3,2.3-8.1-1c0,0.4-0.6,2.9-1.5,3.3c0.3,0.6,1.3,4.4-0.8,5.4c0.4,0.9,1.5,4.6,0.1,5.8c0.7,0.8,1.5,1.4,1.5,2.4
			c0.4,0.6,2.7,3.5,0.9,4.8c1.5,0.9,3.6,3,2.9,5.8c-0.6,2.8-0.7,3.6-3,5.6c0.5,0.8,1.7,2.1,2,2.9c0.3,0.8,1.3,3.2,1.5,3.6
			c0.3,0.4,1.4,2.5,0.6,2.8c-0.8,0.3-2.3-0.7-2.8-3.2C117.5,279.8,116.7,278,115.9,277.9z"/>
	</g>
	<path id="bazo_1_" class="bodyPart" fill="#2AA8CF" d="M181.6,205.1c-1-0.4-2.1-3.4-5.5-1.7c-3.4,1.7-1.1,5.7-1.1,5.7c0,0,0,0,0,0
		c-0.4,0.2-0.1,1.8-0.5,2.9c-0.5,1.1-1.8,0.9-2.1,1c-0.3,0.1-1,0.5-1,0.5l0.5,0.9c0,0,1-0.4,1.1-0.4c0.2,0,0.8,0,1.3-0.3
		c0.5-0.3,1-0.7,1.3-0.4c0.3,0.2,1.7,1.5,2.3,2c0.2,1.1,0.1,1.8,0.2,2.3c1.7,2.6,3.2,1.7,4.5-0.2
		C185.4,213.1,182.7,205.5,181.6,205.1z M175.7,212c-0.4,0.1-0.3-0.8-0.3-1.1c0-0.2,0.3-0.6,0.5-0.8c0.2,0.3,0.5,0.7,0.7,1
		C176.4,211.5,176,212,175.7,212z M176.2,212.5c-0.1-0.1,0.3-0.6,0.6-0.9c0.2,0.4,0.4,0.8,0.6,1.2c-0.2,0.1-0.4,0.1-0.7,0.1
		C176.7,213,176.3,212.6,176.2,212.5z M176.9,213.6c0-0.3,0.3,0,0.7-0.2c0.1,0.2,0.2,0.5,0.2,0.7C177.5,214,177,213.8,176.9,213.6z"
		/>
	<path id="pulmones_2_" class="bodyPart" fill="#21B3D6" stroke="#3FA818" stroke-width="1.602200e-02" stroke-miterlimit="10" d="M136.1,147
		c0,0,2.6-1.1,3.4-3.6c0.9-2.7-0.2-33.9-0.2-33.9c-1.2-0.4-2.7-4.7-2.7-4.7l1,0v-2.6c-1.5-0.1-1.2-2.9-1.2-2.9s-0.6-1.3,0.9-1.3
		c1.3,0,0.9,1.8,0.9,1.8c0,0.9,0.8,0.9,0.8,0.9s-0.3-1.5,2-1.5c2.9,0.1,2.2,1.5,2.2,1.5c0.6-0.1,0.9-0.8,0.9-1
		c0-1.2,0.5-1.7,1.2-1.7c1.2,0.4,0.6,1.5,0.6,1.5s0,0.4,0,0.8c-0.1,1.5-1.2,1.8-1.2,1.8v2.6h0.9c0.1,1-2.4,4.7-2.4,4.7
		c-1.1,4.1,0.5,33.8,0.5,33.8c0.9,3.9,3.7,4.1,3.7,4.1l1.2,0.9c0,0,0.1-2.6-0.2-2.9c-0.2-0.3-3-11.8,1.1-20.1
		c4.1-8.3,17.7,3.6,21.1,8.2c3.4,4.6,10.3,13.6,12,27.3c0.6,1.5,0.5,2.8,1.2,4.3c0.8,1.5,4.1,10.8,2,31.1c0,0-4.5,7.2-20,5.8
		c-15.5-1.4-14.4-5.8-14.4-15.2c0-9.4-0.8-13.4-0.5-16c0.3-2.6-1.8-11.3-2.4-12.7c-0.6-1.4-1.2-2.5-3.8-4c-2.5-1.5-4.3-0.6-5.5,0.2
		s-2.4,4.5-2.4,5.1c0,0.6,0,2,0.1,2.9c0.1,0.9-0.6,10.9-0.6,12.3c0.1,1.4,2.5,20.3-4.3,23.8c-6.8,3.5-26.2,8.8-35.8-1.2
		c-1.6-5.2-2.3-26.7,1-30.4c0,0,0.3-5.5,2.2-7c0,0,2.6-22.9,21.7-37.3c5.1-2,10.1-4.4,11.9,7.7c1.4,11.2,1.5,17.6,1.5,17.6
		L136.1,147z"/>
	<path id="estomago_2_" class="bodyPart" fill="#B31C9E" d="M137.4,228.7c0.2,0.5,10.9,16,29.5,4.3c8.2-6.1,13.3-22.2,3.3-26.3
		c-9.9-4.1-11,1-14.9,0.4c-3-0.5-5.5-5.9-6.5-9.5c-0.3-1-1.8-19.9-1.8-20.5h-5c0,0,1.3,19.1,1.4,20.7c0.3,3.9,1.8,11.3,8.4,14.8
		c3.7,2.8,2.4,9.3-2.4,8.9c-4.7-0.4-5.7-0.2-8.6,0.4C141,221.9,135.7,223.2,137.4,228.7z"/>
	<path id="higado_2_" class="bodyPart" fill="#8015B8" d="M101.6,236.3c0,0-12-19.2,4.1-35.7c4.9-2.4,13.8-4.7,15.7-4.3c1.9,0.4,20,2.8,32.5,3.2
		c12.5,0.4,12.5,1.3,7.5,6.5c-5,5.2-12.3,13.8-17.9,12.7c-1.9-0.2-3.7,5.2-9.2,7.3c0,0-7.5,1.7-8.5,2.1c-1,0.4-5.3,4.2-6.9,4.2
		c-1.6,0-2.7-1.5-3.6-1.2C114.3,231.5,110.2,236.8,101.6,236.3z"/>
	<path id="corazon_2_" class="bodyPart" fill="#8015B8" d="M163.6,175.8c-0.8-5-5.4-4.6-5.4-4.6s2-0.5,3.1-2.1c1-1.4,0.3-5.5,0.3-5.8
		c1-1.3,2.4-1.5,2.5-1.5c0.5,0,1.2-0.3,1.1-0.4c0,0,0.1-0.5,0.1-0.5c-0.6,0.5-1.4,0.4-1.4,0.4c-1.6,0.1-2.5,1.5-2.5,1.5
		c-0.5-1.3-0.6-2.1-0.6-3.1c0-1,0.9-1.8,0.9-1.8l0.1-0.7c0,0-0.2,0.3-0.8,0.9c-0.6,0.6-1.2,2.4-0.6,3.6c0.6,1.3,0.5,2.7,0.5,2.7
		s-0.8,0.3-1.2,0.3c-1.3,0-3.6-0.5-3.6-0.5s-0.3-1.3-0.7-2.2c-1-2.5-2.8-3.5-3.1-3.8c-0.3-0.7,0-5,0-5c-1.4,0.1-2.1-0.6-2.1-0.6
		c-0.2,3.3-0.2,5.1-0.5,5.1c-0.3,0-0.7-5-0.7-5l-1.8,0.1c0,0-0.1,0.9,0.1,3.4c0.2,2.5-0.3,2.1-0.3,2.1c-0.7,0.1-1-4.5-1-4.5
		l-1.8,0.3c1-4.6,2.8-7.7,2.8-7.7l-2.4-2.1c-1.3,1.5-3.1,6.5-3.1,6.5c-0.4-0.4-1.5-3.2-1.5-3.2l-2.8,0.5c1.6,2.7,1.8,18.2,1.8,18.2
		s-2,3.2-2.8,5.1c-2.1,6.2,1.1,8.7,1.1,8.7c-0.1,4.9,2.2,7.5,2.8,8.1c5.2,5.4,12.1,6.1,12.8,5.9c1.6-0.6,4.2-6.1,4.5-6.9
		c2.7-7.3-0.6-11-0.6-11s0.3-0.4,0.4-0.8c0.7-1.9,1.5-1.8,2.9-1.6c1.5,0.2,2.4,3,2.6,3.9c0.2,0.9,2.5,7.5,2.5,7.5l0.5-0.5
		C166.1,184.6,164.4,180.7,163.6,175.8z M143.8,162c0,0,0,0-0.3-0.8c-0.3-0.8-0.2-0.7,0.7-5.8l0.1,0.6c0,0,0.4,3.2,0.6,3.7
		C145,160.3,143.8,162,143.8,162z M149.2,163.9c-0.3,0.1-1.4,0.3-1.4,0.3s0.5-1.1,1.9-1c1.5,0,2,0.7,2,0.7S149.6,163.8,149.2,163.9z
		 M157.1,169.1c-0.8,0.1-1.9-0.8-3.2-1.2c-1.2-0.5-3,1.7-3,1.7s0.1-0.2,0.9-1.4c0.8-1.3,2.3-0.8,3-0.8c5.3,0.2,5.8-0.3,5.8-0.3
		C160.2,168.2,157.9,169,157.1,169.1z"/>
	<path id="cerebro_3_" class="bodyPart" fill="#21B3D6" stroke="#3FA818" stroke-width="1.175000e-02" stroke-miterlimit="10" d="M141.3,15.4
		c0,0,3.6-3.9,9.2,0c0,0,9.4,3.5,10.5,12c0.5,0.2,4.1,10.9-4.3,15.6c0.1,1.2-0.2,6.3-8.8,6.6c-0.4,0-5.2,1-5.1,7.3
		c0,0.7-0.1,1.1-0.1,1.1h-3.1c0,0-0.1-0.5-0.1-1.1c0.1-6.3-4.6-7.3-5.1-7.3c-8.6-0.3-8.9-5.4-8.8-6.6c-8.4-4.7-4.8-15.4-4.3-15.6
		c1-8.6,10.5-12,10.5-12c5.6-3.9,9.2,0,9.2,0H141.3z"/>
</g>
</svg>
